<?xml version="1.0" encoding="UTF-8"?>
<!DOCTYPE svg PUBLIC "-//W3C//DTD SVG 1.1//EN" "http://www.w3.org/Graphics/SVG/1.1/DTD/svg11.dtd">
<!-- Creator: CorelDRAW 2021 (64-Bit) -->
<svg xmlns="http://www.w3.org/2000/svg" xml:space="preserve" width="0.565071in" height="0.565071in" version="1.1" style="shape-rendering:geometricPrecision; text-rendering:geometricPrecision; image-rendering:optimizeQuality; fill-rule:evenodd; clip-rule:evenodd"
viewBox="0 0 5.82 5.82"
 xmlns:xlink="http://www.w3.org/1999/xlink"
 xmlns:xodm="http://www.corel.com/coreldraw/odm/2003">
 <defs>
  <style type="text/css">
   <![CDATA[
    .str0 {stroke:white;stroke-width:0.14;stroke-miterlimit:10}
    .fil2 {fill:#FEFEFE}
    .fil1 {fill:#FEFEFE;fill-rule:nonzero}
    .fil0 {fill:#96989A;fill-rule:nonzero}
   ]]>
  </style>
 </defs>
 <g id="Layer_x0020_1">
  <metadata id="CorelCorpID_0Corel-Layer"/>
  <g id="_2860903324144">
   <path class="fil0 str0" d="M2.91 0.12c-1.54,0 -2.79,1.25 -2.79,2.79 0,1.54 1.25,2.79 2.79,2.79 1.54,0 2.79,-1.25 2.79,-2.79 0,-0.71 -0.27,-1.36 -0.71,-1.86 -0.51,-0.57 -1.25,-0.93 -2.08,-0.93zm0 5.63c-1.57,0 -2.84,-1.27 -2.84,-2.84 0,-1.57 1.27,-2.84 2.84,-2.84 1.57,0 2.84,1.27 2.84,2.84 0,1.57 -1.27,2.84 -2.84,2.84z"/>
   <path class="fil1" d="M2.91 1.85c-0.59,0 -1.06,0.48 -1.06,1.06 0,0.58 0.48,1.06 1.06,1.06 0.58,0 1.06,-0.48 1.06,-1.06 0,-0.59 -0.48,-1.06 -1.06,-1.06zm0 2.2c-0.63,0 -1.14,-0.51 -1.14,-1.14 0,-0.63 0.51,-1.14 1.14,-1.14 0.63,0 1.14,0.51 1.14,1.14 0,0.63 -0.51,1.14 -1.14,1.14zm-0.65 0.09l0.02 0.01c0.12,0.06 0.26,0.11 0.39,0.13l0.03 0 0.09 0.33c0.01,0.03 0.04,0.06 0.08,0.06l0.06 0c0.04,0 0.07,-0.02 0.08,-0.06l0.09 -0.33 0.03 -0c0.14,-0.02 0.27,-0.07 0.39,-0.13l0.02 -0.01 0.25 0.19c0.03,0.02 0.07,0.02 0.09,0l0.06 -0.04c0.03,-0.02 0.04,-0.06 0.03,-0.09l-0.1 -0.3 0.02 -0.02c0.1,-0.1 0.18,-0.21 0.24,-0.33l0.01 -0.02 0.32 0 0 0c0.03,0 0.06,-0.02 0.08,-0.05l0.02 -0.05c0.01,-0.03 0,-0.07 -0.03,-0.09l-0.26 -0.2 0 -0.02c0.01,-0.07 0.02,-0.14 0.02,-0.21 0,-0.07 -0.01,-0.14 -0.02,-0.21l-0 -0.03 0.25 -0.16c0.03,-0.02 0.04,-0.06 0.03,-0.09l-0.02 -0.05c-0.01,-0.03 -0.04,-0.05 -0.07,-0.05l-0.32 -0.02 -0.01 -0.02c-0.06,-0.12 -0.15,-0.24 -0.24,-0.33l-0.02 -0.02 0.1 -0.26c0.01,-0.03 0,-0.07 -0.03,-0.09l-0.06 -0.04c-0.03,-0.02 -0.06,-0.02 -0.09,-0l-0.25 0.16 -0.02 -0.01c-0.12,-0.06 -0.26,-0.11 -0.39,-0.13l-0.02 -0 -0.09 -0.27c-0.01,-0.03 -0.04,-0.05 -0.08,-0.05l-0.07 0c-0.03,0 -0.06,0.02 -0.08,0.05l-0.09 0.27 -0.02 0c-0.14,0.02 -0.27,0.07 -0.39,0.13l-0.02 0.01 -0.25 -0.16c-0.03,-0.02 -0.06,-0.02 -0.09,0l-0.06 0.04c-0.03,0.02 -0.04,0.06 -0.03,0.09l0.1 0.26 -0.02 0.02c-0.1,0.1 -0.18,0.21 -0.24,0.33l-0.01 0.02 -0.32 0.02c-0.03,0 -0.06,0.02 -0.07,0.05l-0.02 0.07c-0.01,0.04 0,0.07 0.03,0.09l0.25 0.15 -0 0.03c-0.01,0.07 -0.02,0.14 -0.02,0.21 0,0.07 0.01,0.14 0.02,0.21l0 0.02 -0.26 0.21c-0.03,0.02 -0.04,0.06 -0.03,0.09l0.02 0.06c0.01,0.04 0.05,0.06 0.08,0.05l0.31 -0.03 0.01 0.02c0.06,0.12 0.15,0.24 0.24,0.33l0.02 0.02 -0.1 0.33c-0.01,0.03 0,0.07 0.03,0.09l0.05 0.04c0.03,0.02 0.07,0.02 0.1,-0l0.25 -0.22zm0.68 0.61l-0.06 0c-0.07,0 -0.14,-0.05 -0.15,-0.12l-0.08 -0.28c-0.13,-0.02 -0.25,-0.06 -0.37,-0.12l-0.21 0.18c-0.06,0.05 -0.14,0.05 -0.2,0.01l-0.05 -0.04c-0.06,-0.04 -0.08,-0.11 -0.06,-0.18l0.09 -0.29c-0.09,-0.09 -0.17,-0.2 -0.23,-0.31l-0.25 0.03c-0.07,0.01 -0.15,-0.04 -0.17,-0.11l-0.02 -0.06c-0.02,-0.06 0,-0.13 0.05,-0.17l0.23 -0.18c-0.01,-0.07 -0.01,-0.13 -0.01,-0.2 0,-0.06 0,-0.13 0.01,-0.19l-0.2 -0.12c-0.06,-0.04 -0.09,-0.12 -0.07,-0.19l0.02 -0.07c0.02,-0.06 0.08,-0.11 0.14,-0.11l0.28 -0.02c0.06,-0.11 0.14,-0.22 0.23,-0.32l-0.08 -0.22c-0.03,-0.07 -0,-0.14 0.06,-0.19l0.06 -0.04c0.05,-0.04 0.12,-0.04 0.18,-0.01l0.21 0.14c0.12,-0.06 0.24,-0.1 0.37,-0.12l0.08 -0.22c0.02,-0.06 0.08,-0.11 0.15,-0.11l0.07 0c0.07,0 0.13,0.04 0.15,0.11l0.08 0.22c0.13,0.02 0.25,0.06 0.37,0.12l0.21 -0.14c0.06,-0.04 0.13,-0.03 0.18,0.01l0.06 0.04c0.06,0.04 0.08,0.12 0.06,0.19l-0.08 0.22c0.09,0.09 0.17,0.2 0.23,0.32l0.28 0.02c0.06,0 0.12,0.05 0.14,0.11l0.02 0.05c0.02,0.07 -0,0.15 -0.06,0.19l-0.21 0.14c0.01,0.06 0.01,0.13 0.01,0.19 0,0.06 -0,0.13 -0.01,0.2l0.22 0.17c0.06,0.04 0.08,0.12 0.05,0.18l-0.02 0.05c-0.02,0.07 -0.09,0.11 -0.15,0.11l-0.27 -0c-0.06,0.11 -0.14,0.22 -0.23,0.31l0.09 0.25c0.02,0.07 -0,0.14 -0.06,0.18l-0.06 0.04c-0.06,0.04 -0.13,0.04 -0.19,-0l-0.21 -0.16c-0.12,0.06 -0.24,0.1 -0.37,0.12l-0.08 0.28c-0.02,0.07 -0.08,0.12 -0.15,0.12z"/>
   <polygon class="fil2" points="3.47,2.91 2.66,3.43 2.66,2.4 "/>
  </g>
 </g>
</svg>
