<?xml version="1.0" encoding="UTF-8"?>
<!DOCTYPE svg PUBLIC "-//W3C//DTD SVG 1.1//EN" "http://www.w3.org/Graphics/SVG/1.1/DTD/svg11.dtd">
<!-- Creator: CorelDRAW 2021 (64-Bit) -->
<svg xmlns="http://www.w3.org/2000/svg" xml:space="preserve" width="0.565071in" height="0.565071in" version="1.1" style="shape-rendering:geometricPrecision; text-rendering:geometricPrecision; image-rendering:optimizeQuality; fill-rule:evenodd; clip-rule:evenodd"
viewBox="0 0 5.74 5.74"
 xmlns:xlink="http://www.w3.org/1999/xlink"
 xmlns:xodm="http://www.corel.com/coreldraw/odm/2003">
 <defs>
  <style type="text/css">
   <![CDATA[
    .str0 {stroke:white;stroke-width:0.14;stroke-miterlimit:10}
    .fil1 {fill:#FEFEFE;fill-rule:nonzero}
    .fil0 {fill:#96989A;fill-rule:nonzero}
   ]]>
  </style>
 </defs>
 <g id="Layer_x0020_1">
  <metadata id="CorelCorpID_0Corel-Layer"/>
  <g id="_2860682691168">
   <path class="fil0 str0" d="M2.87 0.12c-1.52,0 -2.75,1.23 -2.75,2.75 0,1.52 1.24,2.75 2.75,2.75 1.52,0 2.75,-1.24 2.75,-2.75 0,-1.52 -1.23,-2.75 -2.75,-2.75zm0 5.55c-1.54,0 -2.8,-1.26 -2.8,-2.8 0,-1.54 1.26,-2.8 2.8,-2.8 1.54,0 2.8,1.26 2.8,2.8 0,1.54 -1.26,2.8 -2.8,2.8z"/>
   <path class="fil1" d="M2.92 4.73c-0.55,0 -1,-0.28 -1,-0.62 0,-0.13 0.06,-0.25 0.18,-0.36l0.05 0.06c-0.1,0.09 -0.15,0.19 -0.15,0.3 0,0.3 0.41,0.54 0.92,0.54 0.51,0 0.92,-0.24 0.92,-0.54 0,-0.11 -0.06,-0.22 -0.17,-0.31l0.05 -0.06c0.13,0.11 0.2,0.24 0.2,0.37 0,0.34 -0.45,0.62 -1,0.62z"/>
   <path class="fil1" d="M2.9 1.15c-0.65,0 -1.18,0.61 -1.18,1.36 0,0.76 0.54,1.69 1.18,1.69 0.63,0 1.18,-0.93 1.18,-1.69 0,-0.75 -0.53,-1.36 -1.18,-1.36zm0 3.13c-0.33,0 -0.64,-0.21 -0.9,-0.6 -0.23,-0.35 -0.36,-0.79 -0.36,-1.18 0,-0.79 0.56,-1.44 1.26,-1.44 0.69,0 1.26,0.64 1.26,1.44 0,0.39 -0.14,0.83 -0.36,1.18 -0.25,0.38 -0.57,0.6 -0.9,0.6z"/>
   <path class="fil1" d="M3.46 2.22c-0.06,0 -0.17,0.05 -0.29,0.15 -0.02,0.01 -0.03,0.04 -0.03,0.06 0,0.02 0.01,0.04 0.03,0.06 0.12,0.1 0.23,0.15 0.29,0.15 0.13,0 0.24,-0.09 0.24,-0.21 0,-0.11 -0.11,-0.21 -0.24,-0.21zm0 0.5c-0.08,0 -0.2,-0.06 -0.34,-0.17 -0.04,-0.03 -0.06,-0.07 -0.06,-0.12 0,-0.05 0.02,-0.09 0.06,-0.12 0.14,-0.11 0.26,-0.17 0.34,-0.17 0.18,0 0.32,0.13 0.32,0.29 0,0.16 -0.15,0.29 -0.32,0.29z"/>
   <path class="fil1" d="M2.4 2.22c-0.13,0 -0.24,0.09 -0.24,0.21 0,0.11 0.11,0.21 0.24,0.21 0.06,0 0.17,-0.05 0.29,-0.15 0.02,-0.01 0.03,-0.04 0.03,-0.06 0,-0.02 -0.01,-0.04 -0.03,-0.06 -0.12,-0.1 -0.23,-0.15 -0.29,-0.15zm0 0.5c-0.18,0 -0.32,-0.13 -0.32,-0.29 0,-0.16 0.15,-0.29 0.32,-0.29 0.08,0 0.2,0.06 0.34,0.17 0.04,0.03 0.06,0.07 0.06,0.12 0,0.05 -0.02,0.09 -0.06,0.12 -0.14,0.11 -0.26,0.17 -0.34,0.17z"/>
   <path class="fil1" d="M2.9 3.27c-0.11,0 -0.21,0.07 -0.21,0.16 0,0.01 0.01,0.07 0.14,0.19 0.03,0.03 0.1,0.03 0.13,0 0.13,-0.12 0.14,-0.18 0.14,-0.19 0,-0.09 -0.09,-0.16 -0.21,-0.16zm0 0.45c-0.04,0 -0.09,-0.01 -0.12,-0.04 -0.11,-0.1 -0.17,-0.19 -0.17,-0.25 0,-0.13 0.13,-0.24 0.29,-0.24 0.16,0 0.29,0.11 0.29,0.24 0,0.06 -0.06,0.15 -0.17,0.25l0 0c-0.03,0.03 -0.07,0.04 -0.12,0.04z"/>
  </g>
 </g>
</svg>
