<?xml version="1.0" encoding="UTF-8"?>
<!DOCTYPE svg PUBLIC "-//W3C//DTD SVG 1.1//EN" "http://www.w3.org/Graphics/SVG/1.1/DTD/svg11.dtd">
<!-- Creator: CorelDRAW 2021 (64-Bit) -->
<svg xmlns="http://www.w3.org/2000/svg" xml:space="preserve" width="0.565071in" height="0.565071in" version="1.1" style="shape-rendering:geometricPrecision; text-rendering:geometricPrecision; image-rendering:optimizeQuality; fill-rule:evenodd; clip-rule:evenodd"
viewBox="0 0 5.73 5.73"
 xmlns:xlink="http://www.w3.org/1999/xlink"
 xmlns:xodm="http://www.corel.com/coreldraw/odm/2003">
 <defs>
  <style type="text/css">
   <![CDATA[
    .str0 {stroke:white;stroke-width:0.14;stroke-miterlimit:10}
    .fil1 {fill:#FEFEFE;fill-rule:nonzero}
    .fil0 {fill:#96989A;fill-rule:nonzero}
   ]]>
  </style>
 </defs>
 <g id="Layer_x0020_1">
  <metadata id="CorelCorpID_0Corel-Layer"/>
  <g id="_2860466576816">
   <path class="fil0 str0" d="M2.87 0.12c-1.51,0 -2.75,1.23 -2.75,2.75 0,1.51 1.23,2.75 2.75,2.75 1.51,0 2.75,-1.23 2.75,-2.75 0,-1.51 -1.23,-2.75 -2.75,-2.75zm0 5.54c-1.54,0 -2.79,-1.25 -2.79,-2.79 0,-1.54 1.25,-2.79 2.79,-2.79 1.54,0 2.79,1.25 2.79,2.79 0,1.54 -1.25,2.79 -2.79,2.79z"/>
   <path class="fil1" d="M2.55 3.19l0.01 0.12c0.03,0.5 0.33,0.88 0.89,1.12 0.4,-0.31 0.63,-0.78 0.63,-1.29 0,-0.28 -0.07,-0.55 -0.21,-0.79 -0.13,0.33 -0.39,0.6 -0.73,0.74l-0.12 0.05 0.07 -0.11c0.12,-0.19 0.19,-0.42 0.19,-0.65 0,-0.27 -0.06,-0.78 -0.48,-1.17 -0.06,0.46 -0.37,0.77 -0.67,1.08 -0.31,0.31 -0.6,0.6 -0.57,1.02 0.03,0.49 0.32,0.88 0.74,1.02 -0.13,-0.44 0.03,-0.81 0.19,-1.05l0.07 -0.1zm0.9 1.33l-0.02 -0.01c-0.55,-0.24 -0.87,-0.61 -0.94,-1.09 -0.18,0.31 -0.22,0.63 -0.1,0.95l0.03 0.07 -0.08 -0.02c-0.49,-0.12 -0.84,-0.57 -0.87,-1.12 -0.03,-0.45 0.27,-0.76 0.59,-1.08 0.31,-0.31 0.62,-0.63 0.66,-1.11l0.01 -0.08 0.06 0.05c0.37,0.31 0.57,0.77 0.57,1.29 0,0.2 -0.05,0.4 -0.14,0.58 0.29,-0.15 0.5,-0.41 0.6,-0.72l0.03 -0.08 0.05 0.08c0.17,0.27 0.26,0.59 0.26,0.91 0,0.54 -0.25,1.04 -0.68,1.37l-0.02 0.01z"/>
  </g>
 </g>
</svg>
