<?xml version="1.0" encoding="UTF-8"?>
<!DOCTYPE svg PUBLIC "-//W3C//DTD SVG 1.1//EN" "http://www.w3.org/Graphics/SVG/1.1/DTD/svg11.dtd">
<!-- Creator: CorelDRAW 2021 (64-Bit) -->
<svg xmlns="http://www.w3.org/2000/svg" xml:space="preserve" width="0.565067in" height="0.565071in" version="1.1" style="shape-rendering:geometricPrecision; text-rendering:geometricPrecision; image-rendering:optimizeQuality; fill-rule:evenodd; clip-rule:evenodd"
viewBox="0 0 5.08 5.08"
 xmlns:xlink="http://www.w3.org/1999/xlink"
 xmlns:xodm="http://www.corel.com/coreldraw/odm/2003">
 <defs>
  <style type="text/css">
   <![CDATA[
    .str0 {stroke:white;stroke-width:0.12;stroke-miterlimit:10}
    .fil1 {fill:#FEFEFE;fill-rule:nonzero}
    .fil0 {fill:#96989A;fill-rule:nonzero}
   ]]>
  </style>
 </defs>
 <g id="Layer_x0020_1">
  <metadata id="CorelCorpID_0Corel-Layer"/>
  <g id="_2860911363184">
   <path class="fil0 str0" d="M2.54 0.11c-1.34,0 -2.43,1.09 -2.43,2.43 0,1.34 1.09,2.43 2.43,2.43 1.34,0 2.43,-1.09 2.43,-2.43 0,-1.34 -1.09,-2.43 -2.43,-2.43zm0 4.91c-1.37,0 -2.48,-1.11 -2.48,-2.48 0,-1.37 1.11,-2.48 2.48,-2.48 1.37,0 2.48,1.11 2.48,2.48 0,1.37 -1.11,2.48 -2.48,2.48z"/>
   <path class="fil1" d="M2.52 1.1c-0.16,0.18 -0.99,1.14 -0.99,1.84 0,0.54 0.45,0.98 0.99,0.98 0.55,0 0.99,-0.44 0.99,-0.98 0,-0.69 -0.84,-1.66 -0.99,-1.84zm0 2.88c-0.59,0 -1.07,-0.47 -1.07,-1.05 0,-0.8 1,-1.87 1.04,-1.91l0.03 -0.03 0.03 0.03c0.04,0.05 1.04,1.13 1.04,1.91 0,0.58 -0.48,1.05 -1.07,1.05z"/>
   <path class="fil1" d="M2.52 3.61c-0.39,0 -0.7,-0.31 -0.7,-0.69l0.07 0c0,0.34 0.28,0.62 0.63,0.62l0 0.07z"/>
  </g>
 </g>
</svg>
