<?xml version="1.0" encoding="UTF-8"?>
<!DOCTYPE svg PUBLIC "-//W3C//DTD SVG 1.1//EN" "http://www.w3.org/Graphics/SVG/1.1/DTD/svg11.dtd">
<!-- Creator: CorelDRAW 2021 (64-Bit) -->
<svg xmlns="http://www.w3.org/2000/svg" xml:space="preserve" width="0.46528in" height="0.425197in" version="1.1" style="shape-rendering:geometricPrecision; text-rendering:geometricPrecision; image-rendering:optimizeQuality; fill-rule:evenodd; clip-rule:evenodd"
viewBox="0 0 2.57 2.35"
 xmlns:xlink="http://www.w3.org/1999/xlink"
 xmlns:xodm="http://www.corel.com/coreldraw/odm/2003">
 <defs>
  <style type="text/css">
   <![CDATA[
    .fil0 {fill:#FEFEFE;fill-rule:nonzero}
   ]]>
  </style>
 </defs>
 <g id="Layer_x0020_1">
  <metadata id="CorelCorpID_0Corel-Layer"/>
  <g id="_2861717543104">
   <path class="fil0" d="M0.48 1.9l1.58 0 -0.31 -1.11c-0.02,-0.07 -0.09,-0.12 -0.16,-0.12l-0.63 0c-0.07,0 -0.14,0.05 -0.16,0.12l-0.32 1.11zm0.48 -1.29c-0.1,0 -0.19,0.07 -0.21,0.16l-0.34 1.18 1.73 0 -0.33 -1.18c-0.03,-0.1 -0.11,-0.16 -0.22,-0.16l-0.63 0z"/>
   <path class="fil0" d="M0.39 1.96c-0.09,0 -0.17,0.08 -0.17,0.17l0 0.11c0,0.03 0.03,0.06 0.06,0.06l2 0c0.03,0 0.06,-0.03 0.06,-0.06l0 -0.11c0,-0.09 -0.08,-0.17 -0.17,-0.17l-1.78 0zm-0 -0.06c-0.12,0 -0.22,0.1 -0.22,0.22l0 0.11c0,0.06 0.05,0.11 0.11,0.11l2 0c0.06,0 0.11,-0.05 0.11,-0.11l0 -0.11c0,-0.12 -0.1,-0.22 -0.22,-0.22l-1.78 0z"/>
   <path class="fil0" d="M0.9 1.9c0.08,0.13 0.22,0.22 0.39,0.22 0.17,0 0.31,-0.09 0.39,-0.22l-0.77 0z"/>
   <polygon class="fil0" points="1.34,0.17 1.28,0.17 1.28,0 1.34,0 "/>
   <path class="fil0" d="M1.79 1.82l-0.06 0c0,-0.25 -0.2,-0.45 -0.45,-0.45 -0.25,0 -0.45,0.2 -0.45,0.45l-0.06 0c0,-0.28 0.23,-0.5 0.5,-0.5 0.28,0 0.5,0.23 0.5,0.5z"/>
   <polygon class="fil0" points="2.57,1.45 2.4,1.45 2.4,1.4 2.57,1.4 "/>
   <polygon class="fil0" points="0.17,1.45 -0,1.45 -0,1.4 0.17,1.4 "/>
   <polygon class="fil0" points="2.28,0.55 2.24,0.51 2.38,0.37 2.42,0.41 "/>
   <polygon class="fil0" points="0.37,0.55 0.23,0.41 0.27,0.37 0.41,0.51 "/>
  </g>
 </g>
</svg>
