<?xml version="1.0" encoding="UTF-8"?>
<!DOCTYPE svg PUBLIC "-//W3C//DTD SVG 1.1//EN" "http://www.w3.org/Graphics/SVG/1.1/DTD/svg11.dtd">
<!-- Creator: CorelDRAW 2021 (64-Bit) -->
<svg xmlns="http://www.w3.org/2000/svg" xml:space="preserve" width="0.474728in" height="0.458028in" version="1.1" style="shape-rendering:geometricPrecision; text-rendering:geometricPrecision; image-rendering:optimizeQuality; fill-rule:evenodd; clip-rule:evenodd"
viewBox="0 0 2.68 2.58"
 xmlns:xlink="http://www.w3.org/1999/xlink"
 xmlns:xodm="http://www.corel.com/coreldraw/odm/2003">
 <defs>
  <style type="text/css">
   <![CDATA[
    .fil3 {fill:#FEFEFE}
    .fil1 {fill:#373435}
    .fil0 {fill:#FEFEFE;fill-rule:nonzero}
    .fil2 {fill:#363435;fill-rule:nonzero}
   ]]>
  </style>
 </defs>
 <g id="Layer_x0020_1">
  <metadata id="CorelCorpID_0Corel-Layer"/>
  <path class="fil0" d="M1.34 0.32c-0.6,0 -1.08,0.48 -1.08,1.08 0,0.6 0.48,1.08 1.08,1.08 0.6,0 1.08,-0.48 1.08,-1.08 0,-0.6 -0.48,-1.08 -1.08,-1.08zm0 2.22c-0.63,0 -1.14,-0.51 -1.14,-1.14 0,-0.63 0.51,-1.14 1.14,-1.14 0.63,0 1.14,0.51 1.14,1.14 0,0.63 -0.51,1.14 -1.14,1.14z"/>
  <path class="fil0" d="M1.34 0.68c-0.4,0 -0.72,0.32 -0.72,0.72 0,0.4 0.32,0.72 0.72,0.72 0.4,0 0.72,-0.32 0.72,-0.72 0,-0.4 -0.32,-0.72 -0.72,-0.72zm0 1.47c-0.42,0 -0.76,-0.34 -0.76,-0.76 0,-0.42 0.34,-0.76 0.76,-0.76 0.42,0 0.76,0.34 0.76,0.76 0,0.42 -0.34,0.76 -0.76,0.76z"/>
  <path class="fil0" d="M1.34 0.98c-0.23,0 -0.41,0.18 -0.41,0.41 0,0.23 0.18,0.41 0.41,0.41 0.23,0 0.41,-0.18 0.41,-0.41 0,-0.23 -0.18,-0.41 -0.41,-0.41zm0 0.84c-0.24,0 -0.43,-0.19 -0.43,-0.43 0,-0.24 0.19,-0.43 0.43,-0.43 0.24,0 0.43,0.19 0.43,0.43 0,0.24 -0.19,0.43 -0.43,0.43z"/>
  <path class="fil1" d="M0.31 0.88c0.01,0 0.02,0 0.03,0 0.01,0 0.02,0 0.02,0 0.01,0 0.02,0 0.03,0 0.01,0 0.02,0 0.03,0.01 0.01,0 0.02,0.01 0.02,0.02 0.01,0.01 0.01,0.02 0.01,0.03 0,0.01 0,0.02 0,0.02 0,0.01 0,0.02 0,0.03 0,0.01 0,0.02 0,0.03 0,0.01 0,0.02 0,0.03 -0,0.01 -0,0.01 -0,0.02 -0,0.01 -0,0.02 -0,0.03 -0,0.01 -0,0.01 -0,0.02 -0,0.01 -0,0.02 -0.01,0.03 -0,0.01 -0.01,0.02 -0.02,0.03 -0.01,0.01 -0.01,0.01 -0.02,0.01 -0.01,0 -0.02,0.01 -0.03,0.01 -0.01,0 -0.02,0 -0.03,0 -0.01,0 -0.02,0 -0.02,0 -0.01,0 -0.01,0 -0.02,0 -0.01,0 -0.03,0 -0.04,0 -0.01,-0 -0.02,-0 -0.03,-0 -0.01,-0 -0.02,-0 -0.02,-0 -0.01,-0 -0.02,-0 -0.04,-0 -0.01,-0 -0.02,-0 -0.02,-0.01 -0.01,-0.01 -0.02,-0.01 -0.02,-0.02 -0,-0.01 -0.01,-0.02 -0.01,-0.03 -0,-0.01 -0,-0.02 -0,-0.03 -0,-0.01 -0,-0.02 -0,-0.03 -0,-0.01 -0,-0.01 -0,-0.02 -0,-0.01 -0,-0.03 -0,-0.04 0,-0.01 0,-0.01 0,-0.02 0,-0.01 0,-0.01 0,-0.02 0,-0.01 0,-0.02 0,-0.03 0,-0.01 0,-0.02 0,-0.03 0,-0.01 0.01,-0.02 0.01,-0.03 0.01,-0.01 0.02,-0.02 0.03,-0.02 0.01,-0 0.02,-0.01 0.03,-0.01 0.01,-0 0.02,-0 0.03,-0 0.01,-0 0.02,-0 0.02,-0 0.01,-0 0.03,-0 0.04,-0 0.01,0 0.01,-0 0.02,0z"/>
  <path class="fil2" d="M0.24 1.09l0.03 0c0.01,0 0.03,0 0.04,0l0.03 -0 0 -0.04 -0 -0.03c-0,-0.01 -0,-0.02 -0,-0.03 0,-0 -0,-0 -0,-0l-0.05 -0c-0.01,-0 -0.02,0 -0.03,0l-0.01 0 -0 0.04c-0,0.01 -0,0.02 0,0.04l0 0.02zm0.05 0.24c-0.01,0 -0.01,-0 -0.02,-0l-0.06 -0c-0.02,-0 -0.04,-0 -0.05,-0.01 -0.02,-0 -0.04,-0.01 -0.05,-0.02 -0.03,-0.02 -0.05,-0.04 -0.07,-0.07 -0.01,-0.02 -0.02,-0.04 -0.02,-0.06 -0,-0.01 -0,-0.02 -0,-0.04l-0 -0.04c-0,-0.02 -0,-0.04 -0,-0.05l0 -0.05c0,-0.01 0,-0.02 0,-0.03 0,-0.02 0,-0.03 0.01,-0.05 0.01,-0.03 0.02,-0.05 0.03,-0.07 0.02,-0.03 0.05,-0.04 0.08,-0.06 0.02,-0.01 0.03,-0.01 0.06,-0.01 0.01,-0 0.02,-0 0.03,-0l0.03 -0c0.01,-0 0.03,-0 0.05,-0l0.08 0c0.02,0 0.03,0 0.05,0.01 0.02,0 0.04,0.01 0.06,0.02 0.03,0.01 0.05,0.04 0.06,0.06 0.01,0.02 0.02,0.04 0.03,0.07 0,0.01 0,0.02 0,0.04 0,0.01 0,0.02 0,0.03 0,0.01 0,0.03 0,0.04l0 0.03 -0 0.05c-0,0.01 -0,0.02 -0,0.02 -0,0.02 -0,0.04 -0.01,0.06 -0.01,0.03 -0.03,0.06 -0.05,0.08 -0.02,0.01 -0.04,0.03 -0.06,0.03 -0.02,0.01 -0.03,0.01 -0.05,0.01 -0.01,0 -0.02,0 -0.04,0l-0.04 0c-0.01,0 -0.02,0 -0.03,0z"/>
  <path class="fil1" d="M0.31 0.88c0.01,0 0.02,0 0.03,0 0.01,0 0.02,0 0.02,0 0.01,0 0.02,0 0.03,0 0.01,0 0.02,0 0.03,0.01 0.01,0 0.02,0.01 0.02,0.02 0.01,0.01 0.01,0.02 0.01,0.03 0,0.01 0,0.02 0,0.02 0,0.01 0,0.02 0,0.03 0,0.01 0,0.02 0,0.03 0,0.01 0,0.02 0,0.03 -0,0.01 -0,0.01 -0,0.02 -0,0.01 -0,0.02 -0,0.03 -0,0.01 -0,0.01 -0,0.02 -0,0.01 -0,0.02 -0.01,0.03 -0,0.01 -0.01,0.02 -0.02,0.03 -0.01,0.01 -0.01,0.01 -0.02,0.01 -0.01,0 -0.02,0.01 -0.03,0.01 -0.01,0 -0.02,0 -0.03,0 -0.01,0 -0.02,0 -0.02,0 -0.01,0 -0.01,0 -0.02,0 -0.01,0 -0.03,0 -0.04,0 -0.01,-0 -0.02,-0 -0.03,-0 -0.01,-0 -0.02,-0 -0.02,-0 -0.01,-0 -0.02,-0 -0.04,-0 -0.01,-0 -0.02,-0 -0.02,-0.01 -0.01,-0.01 -0.02,-0.01 -0.02,-0.02 -0,-0.01 -0.01,-0.02 -0.01,-0.03 -0,-0.01 -0,-0.02 -0,-0.03 -0,-0.01 -0,-0.02 -0,-0.03 -0,-0.01 -0,-0.01 -0,-0.02 -0,-0.01 -0,-0.03 -0,-0.04 0,-0.01 0,-0.01 0,-0.02 0,-0.01 0,-0.01 0,-0.02 0,-0.01 0,-0.02 0,-0.03 0,-0.01 0,-0.02 0,-0.03 0,-0.01 0.01,-0.02 0.01,-0.03 0.01,-0.01 0.02,-0.02 0.03,-0.02 0.01,-0 0.02,-0.01 0.03,-0.01 0.01,-0 0.02,-0 0.03,-0 0.01,-0 0.02,-0 0.02,-0 0.01,-0 0.03,-0 0.04,-0 0.01,0 0.01,-0 0.02,0z"/>
  <path class="fil0" d="M0.28 0.9c-0.01,0 -0.02,0 -0.03,0l-0.02 0c-0.01,0 -0.02,0 -0.03,0 -0.01,0 -0.02,0 -0.02,0.01 -0.01,0 -0.01,0.01 -0.02,0.01 -0,0 -0.01,0.01 -0.01,0.02 -0,0.01 -0,0.02 -0,0.03 -0,0.01 -0,0.01 -0,0.02l-0 0.03c-0,0.01 -0,0.01 -0,0.02 -0,0.01 -0,0.03 0,0.04l0 0.02c0,0.01 0,0.02 0,0.02 0,0.01 0,0.02 0,0.02 0,0.01 0,0.02 0.01,0.02 0,0.01 0.01,0.01 0.02,0.02 0,0 0.01,0 0.02,0.01 0.01,0 0.02,0 0.03,0l0.02 0c0.01,0 0.02,0 0.03,0 0.01,0 0.03,0 0.04,-0l0.04 -0c0.01,-0 0.02,-0 0.03,-0 0.01,-0 0.02,-0 0.02,-0.01 0.01,-0 0.01,-0 0.01,-0.01 0.01,-0.01 0.01,-0.01 0.01,-0.02 0,-0.01 0,-0.02 0,-0.03 0,-0.01 0,-0.01 0,-0.02l0 -0.03c0,-0.01 0,-0.01 0,-0.02 0,-0.01 0,-0.02 -0,-0.03 -0,-0.01 -0,-0.02 -0,-0.03 -0,-0.01 -0,-0.02 -0,-0.03 -0,-0.01 -0,-0.01 -0,-0.02 -0,-0.01 -0,-0.02 -0.01,-0.02 -0,-0.01 -0.01,-0.01 -0.01,-0.01 -0.01,-0 -0.01,-0.01 -0.02,-0.01 -0.01,-0 -0.02,-0 -0.03,-0l-0.07 -0c-0,-0 -0.01,-0 -0.01,-0zm0.01 0.34c-0.01,0 -0.02,-0 -0.02,-0 -0.01,-0 -0.02,-0 -0.03,-0l-0.03 -0c-0.01,-0 -0.03,-0 -0.04,-0 -0.01,-0 -0.02,-0.01 -0.03,-0.01 -0.01,-0.01 -0.02,-0.02 -0.03,-0.03 -0.01,-0.01 -0.01,-0.02 -0.01,-0.04 -0,-0.01 -0,-0.02 -0,-0.03 -0,-0.01 -0,-0.02 -0,-0.03l-0 -0.02c-0,-0.01 -0,-0.03 -0,-0.04 0,-0.01 0,-0.02 0,-0.02l0 -0.03c0,-0.01 0,-0.01 0,-0.02 0,-0.01 0,-0.02 0.01,-0.03 0,-0.01 0.01,-0.02 0.02,-0.03 0.01,-0.01 0.02,-0.02 0.04,-0.03 0.01,-0 0.02,-0.01 0.03,-0.01 0.01,-0 0.02,-0 0.03,-0l0.03 -0c0.01,-0 0.03,-0 0.04,-0l0.08 0c0.01,0 0.02,0 0.03,0 0.01,0 0.02,0.01 0.03,0.01 0.01,0.01 0.02,0.02 0.03,0.03 0.01,0.01 0.01,0.02 0.01,0.04 0,0.01 0,0.02 0,0.03 0,0.01 0,0.02 0,0.03 0,0.01 0,0.02 0,0.04 0,0.01 0,0.02 0,0.03 -0,0.01 -0,0.01 -0,0.02l-0 0.03c-0,0.01 -0,0.01 -0,0.02 -0,0.01 -0,0.02 -0.01,0.04 -0,0.02 -0.01,0.03 -0.02,0.04 -0.01,0.01 -0.02,0.01 -0.03,0.02 -0.01,0 -0.02,0.01 -0.03,0.01 -0.01,0 -0.02,0 -0.03,0l-0.05 0c-0.01,0 -0.01,0 -0.02,0z"/>
  <path class="fil1" d="M0.71 2.13c0.01,0 0.02,0 0.03,0 0.01,0 0.02,0 0.02,0 0.01,0 0.02,0 0.03,0 0.01,0 0.02,0 0.03,0.01 0.01,0 0.02,0.01 0.02,0.02 0.01,0.01 0.01,0.02 0.01,0.03 0,0.01 0,0.02 0,0.02 0,0.01 0,0.02 0,0.03 0,0.01 0,0.02 0,0.03 0,0.01 0,0.02 0,0.03 -0,0.01 -0,0.01 -0,0.02 -0,0.01 -0,0.02 -0,0.03 -0,0.01 -0,0.01 -0,0.02 -0,0.01 -0,0.02 -0.01,0.03 -0,0.01 -0.01,0.02 -0.02,0.03 -0.01,0.01 -0.01,0.01 -0.02,0.01 -0.01,0 -0.02,0.01 -0.03,0.01 -0.01,0 -0.02,0 -0.03,0 -0.01,0 -0.02,0 -0.02,0 -0.01,0 -0.01,0 -0.02,0 -0.01,0 -0.03,0 -0.04,0 -0.01,-0 -0.02,-0 -0.03,-0 -0.01,-0 -0.02,-0 -0.02,-0 -0.01,-0 -0.02,-0 -0.04,-0 -0.01,-0 -0.02,-0 -0.02,-0.01 -0.01,-0.01 -0.02,-0.01 -0.02,-0.02 -0,-0.01 -0.01,-0.02 -0.01,-0.03 -0,-0.01 -0,-0.02 -0,-0.03 -0,-0.01 -0,-0.02 -0,-0.03 -0,-0.01 -0,-0.01 -0,-0.02 -0,-0.01 -0,-0.03 -0,-0.04 0,-0.01 0,-0.01 0,-0.02 0,-0.01 0,-0.01 0,-0.02 0,-0.01 0,-0.02 0,-0.03 0,-0.01 0,-0.02 0,-0.03 0,-0.01 0.01,-0.02 0.01,-0.03 0.01,-0.01 0.02,-0.02 0.03,-0.02 0.01,-0 0.02,-0.01 0.03,-0.01 0.01,-0 0.02,-0 0.03,-0 0.01,-0 0.02,-0 0.02,-0 0.01,-0 0.03,-0 0.04,-0 0.01,0 0.01,-0 0.02,0z"/>
  <path class="fil2" d="M0.64 2.35l0.03 0c0.01,0 0.03,0 0.04,0l0.03 -0 0 -0.04 -0 -0.02c-0,-0.01 -0,-0.02 -0,-0.03 -0,-0 -0,-0 -0,-0l-0.05 -0c-0.01,-0 -0.02,0 -0.03,0l-0.01 0 -0 0.04c-0,0.01 -0,0.02 0,0.04l0 0.02zm0.05 0.24c-0.01,0 -0.01,-0 -0.02,-0l-0.06 -0c-0.02,-0 -0.04,-0 -0.05,-0.01 -0.02,-0 -0.04,-0.01 -0.05,-0.02 -0.03,-0.02 -0.05,-0.04 -0.07,-0.07 -0.01,-0.02 -0.02,-0.04 -0.02,-0.06 -0,-0.01 -0,-0.02 -0,-0.04 -0,-0.01 -0,-0.02 -0,-0.03l-0 -0.02c-0,-0.02 -0,-0.04 -0,-0.05l0 -0.05c0,-0.01 0,-0.02 0,-0.03 0,-0.02 0,-0.03 0.01,-0.05 0.01,-0.03 0.02,-0.05 0.03,-0.07 0.02,-0.03 0.05,-0.04 0.08,-0.06 0.02,-0.01 0.03,-0.01 0.06,-0.01 0.01,-0 0.02,-0 0.03,-0l0.03 -0c0.01,-0 0.03,-0 0.05,-0l0.08 0c0.02,0 0.03,0 0.05,0.01 0.02,0 0.04,0.01 0.06,0.02 0.03,0.01 0.05,0.03 0.06,0.06 0.01,0.02 0.02,0.04 0.03,0.07 0,0.01 0,0.03 0,0.04 0,0.01 0,0.02 0,0.03 0,0.01 0,0.03 0,0.04 0,0.01 0,0.02 0,0.03l-0 0.05c-0,0.01 -0,0.02 -0,0.02 -0,0.02 -0,0.04 -0.01,0.06 -0.01,0.03 -0.03,0.06 -0.05,0.08 -0.02,0.01 -0.04,0.03 -0.06,0.03 -0.02,0.01 -0.03,0.01 -0.05,0.01 -0.01,0 -0.02,0 -0.04,0l-0.04 0c-0.01,0 -0.02,0 -0.03,0z"/>
  <path class="fil1" d="M0.71 2.13c0.01,0 0.02,0 0.03,0 0.01,0 0.02,0 0.02,0 0.01,0 0.02,0 0.03,0 0.01,0 0.02,0 0.03,0.01 0.01,0 0.02,0.01 0.02,0.02 0.01,0.01 0.01,0.02 0.01,0.03 0,0.01 0,0.02 0,0.02 0,0.01 0,0.02 0,0.03 0,0.01 0,0.02 0,0.03 0,0.01 0,0.02 0,0.03 -0,0.01 -0,0.01 -0,0.02 -0,0.01 -0,0.02 -0,0.03 -0,0.01 -0,0.01 -0,0.02 -0,0.01 -0,0.02 -0.01,0.03 -0,0.01 -0.01,0.02 -0.02,0.03 -0.01,0.01 -0.01,0.01 -0.02,0.01 -0.01,0 -0.02,0.01 -0.03,0.01 -0.01,0 -0.02,0 -0.03,0 -0.01,0 -0.02,0 -0.02,0 -0.01,0 -0.01,0 -0.02,0 -0.01,0 -0.03,0 -0.04,0 -0.01,-0 -0.02,-0 -0.03,-0 -0.01,-0 -0.02,-0 -0.02,-0 -0.01,-0 -0.02,-0 -0.04,-0 -0.01,-0 -0.02,-0 -0.02,-0.01 -0.01,-0.01 -0.02,-0.01 -0.02,-0.02 -0,-0.01 -0.01,-0.02 -0.01,-0.03 -0,-0.01 -0,-0.02 -0,-0.03 -0,-0.01 -0,-0.02 -0,-0.03 -0,-0.01 -0,-0.01 -0,-0.02 -0,-0.01 -0,-0.03 -0,-0.04 0,-0.01 0,-0.01 0,-0.02 0,-0.01 0,-0.01 0,-0.02 0,-0.01 0,-0.02 0,-0.03 0,-0.01 0,-0.02 0,-0.03 0,-0.01 0.01,-0.02 0.01,-0.03 0.01,-0.01 0.02,-0.02 0.03,-0.02 0.01,-0 0.02,-0.01 0.03,-0.01 0.01,-0 0.02,-0 0.03,-0 0.01,-0 0.02,-0 0.02,-0 0.01,-0 0.03,-0 0.04,-0 0.01,0 0.01,-0 0.02,0z"/>
  <path class="fil0" d="M0.68 2.15c-0.01,0 -0.02,0 -0.03,0l-0.02 0c-0.01,0 -0.02,0 -0.03,0 -0.01,0 -0.02,0 -0.02,0.01 -0.01,0 -0.01,0.01 -0.02,0.01 -0,0 -0.01,0.01 -0.01,0.02 -0,0.01 -0,0.02 -0,0.03 -0,0.01 -0,0.02 -0,0.03 -0,0.01 -0,0.01 -0,0.02 -0,0.01 -0,0.01 -0,0.02 -0,0.01 -0,0.03 0,0.04l0 0.02c0,0.01 0,0.02 0,0.02 0,0.01 0,0.02 0,0.02 0,0.01 0,0.02 0.01,0.02 0,0.01 0.01,0.01 0.02,0.02 0,0 0.01,0 0.02,0.01 0.01,0 0.02,0 0.03,0l0.02 0c0.01,0 0.02,0 0.03,0 0.01,0 0.03,0 0.04,-0l0.04 -0c0.01,-0 0.02,-0 0.03,-0 0.01,-0 0.02,-0 0.02,-0.01 0.01,-0 0.01,-0 0.01,-0.01 0.01,-0.01 0.01,-0.01 0.01,-0.02 0,-0.01 0,-0.02 0,-0.03 0,-0.01 0,-0.01 0,-0.02 0,-0.01 0,-0.02 0,-0.03 0,-0.01 0,-0.01 0,-0.02 0,-0.01 0,-0.02 -0,-0.03 -0,-0.01 -0,-0.02 -0,-0.03 -0,-0.01 -0,-0.02 -0,-0.03 -0,-0.01 -0,-0.01 -0,-0.02 -0,-0.01 -0,-0.02 -0.01,-0.02 -0,-0.01 -0.01,-0.01 -0.01,-0.01 -0.01,-0 -0.01,-0.01 -0.02,-0.01 -0.01,-0 -0.02,-0 -0.03,-0l-0.07 -0c-0,-0 -0.01,-0 -0.01,-0zm0.01 0.34c-0.01,0 -0.02,-0 -0.02,-0 -0.01,-0 -0.02,-0 -0.03,-0l-0.03 -0c-0.01,-0 -0.03,-0 -0.04,-0 -0.01,-0 -0.02,-0.01 -0.03,-0.01 -0.01,-0.01 -0.02,-0.02 -0.03,-0.03 -0.01,-0.01 -0.01,-0.02 -0.01,-0.04 -0,-0.01 -0,-0.02 -0,-0.03 -0,-0.01 -0,-0.02 -0,-0.03l-0 -0.02c-0,-0.02 -0,-0.03 -0,-0.05 0,-0.01 0,-0.02 0,-0.02 0,-0.01 0,-0.01 0,-0.02 0,-0.01 0,-0.02 0,-0.03 0,-0.01 0,-0.02 0.01,-0.03 0,-0.01 0.01,-0.02 0.02,-0.03 0.01,-0.01 0.02,-0.02 0.04,-0.03 0.01,-0 0.02,-0.01 0.03,-0.01 0.01,-0 0.02,-0 0.03,-0l0.03 -0c0.01,-0 0.03,-0 0.04,-0l0.08 0c0.01,0 0.02,0 0.03,0 0.01,0 0.02,0.01 0.03,0.01 0.01,0.01 0.02,0.02 0.03,0.03 0.01,0.01 0.01,0.02 0.01,0.04 0,0.01 0,0.02 0,0.03 0,0.01 0,0.02 0,0.03 0,0.01 0,0.02 0,0.04 0,0.01 0,0.02 0,0.03 -0,0.01 -0,0.01 -0,0.02 -0,0.01 -0,0.02 -0,0.03 -0,0.01 -0,0.01 -0,0.02 -0,0.01 -0,0.02 -0.01,0.04 -0,0.02 -0.01,0.03 -0.02,0.04 -0.01,0.01 -0.02,0.01 -0.03,0.02 -0.01,0 -0.02,0.01 -0.03,0.01 -0.01,0 -0.02,0 -0.03,0l-0.05 0c-0.01,0 -0.01,0 -0.02,0z"/>
  <path class="fil1" d="M1.36 0.12c0.01,0 0.02,0 0.03,0 0.01,0 0.02,0 0.02,0 0.01,0 0.02,0 0.03,0 0.01,0 0.02,0 0.03,0.01 0.01,0 0.02,0.01 0.02,0.02 0.01,0.01 0.01,0.02 0.01,0.03 0,0.01 0,0.02 0,0.02 0,0.01 0,0.02 0,0.03 0,0.01 0,0.02 0,0.03 0,0.01 0,0.02 0,0.03 -0,0.01 -0,0.01 -0,0.02 -0,0.01 -0,0.02 -0,0.03 -0,0.01 -0,0.01 -0,0.02 -0,0.01 -0,0.02 -0.01,0.03 -0,0.01 -0.01,0.02 -0.02,0.03 -0.01,0.01 -0.01,0.01 -0.02,0.01 -0.01,0 -0.02,0.01 -0.03,0.01 -0.01,0 -0.02,0 -0.03,0 -0.01,0 -0.02,0 -0.02,0 -0.01,0 -0.01,0 -0.02,0 -0.01,0 -0.03,0 -0.04,0 -0.01,-0 -0.02,-0 -0.03,-0 -0.01,-0 -0.02,-0 -0.02,-0 -0.01,-0 -0.02,-0 -0.04,-0 -0.01,-0 -0.02,-0 -0.02,-0.01 -0.01,-0.01 -0.02,-0.01 -0.02,-0.02 -0,-0.01 -0.01,-0.02 -0.01,-0.03 -0,-0.01 -0,-0.02 -0,-0.03 -0,-0.01 -0,-0.02 -0,-0.03 -0,-0.01 -0,-0.01 -0,-0.02 -0,-0.01 -0,-0.03 -0,-0.04 0,-0.01 0,-0.01 0,-0.02 0,-0.01 0,-0.01 0,-0.02 0,-0.01 0,-0.02 0,-0.03 0,-0.01 0,-0.02 0,-0.03 0,-0.01 0.01,-0.02 0.01,-0.03 0.01,-0.01 0.02,-0.02 0.03,-0.02 0.01,-0 0.02,-0.01 0.03,-0.01 0.01,-0 0.02,-0 0.03,-0 0.01,-0 0.02,-0 0.02,-0 0.01,-0 0.03,-0 0.04,-0 0.01,0 0.01,-0 0.02,0z"/>
  <g>
   <path class="fil2" d="M1.25 0.33l0 0 -0 0zm0.03 0l0.03 0c0.01,0 0.03,0 0.04,0l0.03 -0 0 -0.04 -0 -0.02c-0,-0.01 -0,-0.02 -0,-0.03 -0,-0 -0,-0 -0,-0l-0.05 -0c-0.01,-0 -0.02,0 -0.03,0l-0.01 0 -0 0.04c-0,0.01 -0,0.02 0,0.04l0 0.02zm0.05 0.24c-0.01,0 -0.01,-0 -0.02,-0l-0.06 -0c-0.02,-0 -0.04,-0 -0.05,-0.01 -0.02,-0 -0.04,-0.01 -0.05,-0.02 -0.03,-0.02 -0.05,-0.04 -0.07,-0.07 -0.01,-0.02 -0.02,-0.04 -0.02,-0.06 -0,-0.01 -0,-0.02 -0,-0.04 -0,-0.01 -0,-0.02 -0,-0.03l-0 -0.02c-0,-0.02 -0,-0.04 -0,-0.05l0 -0.05c0,-0.01 0,-0.02 0,-0.03 0,-0.02 0,-0.03 0.01,-0.05 0.01,-0.03 0.02,-0.05 0.03,-0.07 0.02,-0.03 0.05,-0.04 0.08,-0.06 0.02,-0.01 0.03,-0.01 0.06,-0.01 0.01,-0 0.02,-0 0.03,-0l0.03 -0c0.01,-0 0.03,-0 0.05,-0l0.08 0c0.02,0 0.03,0 0.05,0.01 0.02,0 0.04,0.01 0.06,0.02 0.03,0.01 0.05,0.04 0.06,0.06 0.01,0.02 0.02,0.04 0.03,0.07 0,0.01 0,0.03 0,0.04 0,0.01 0,0.02 0,0.03 0,0.01 0,0.03 0,0.04 0,0.01 0,0.02 0,0.03l-0 0.05c-0,0.01 -0,0.02 -0,0.02 -0,0.02 -0,0.04 -0.01,0.06 -0.01,0.03 -0.03,0.06 -0.05,0.08 -0.02,0.02 -0.04,0.03 -0.06,0.03 -0.02,0.01 -0.03,0.01 -0.05,0.01 -0.01,0 -0.02,0 -0.04,0l-0.04 0c-0.01,0 -0.02,0 -0.03,0z"/>
  </g>
  <path class="fil1" d="M1.36 0.12c0.01,0 0.02,0 0.03,0 0.01,0 0.02,0 0.02,0 0.01,0 0.02,0 0.03,0 0.01,0 0.02,0 0.03,0.01 0.01,0 0.02,0.01 0.02,0.02 0.01,0.01 0.01,0.02 0.01,0.03 0,0.01 0,0.02 0,0.02 0,0.01 0,0.02 0,0.03 0,0.01 0,0.02 0,0.03 0,0.01 0,0.02 0,0.03 -0,0.01 -0,0.01 -0,0.02 -0,0.01 -0,0.02 -0,0.03 -0,0.01 -0,0.01 -0,0.02 -0,0.01 -0,0.02 -0.01,0.03 -0,0.01 -0.01,0.02 -0.02,0.03 -0.01,0.01 -0.01,0.01 -0.02,0.01 -0.01,0 -0.02,0.01 -0.03,0.01 -0.01,0 -0.02,0 -0.03,0 -0.01,0 -0.02,0 -0.02,0 -0.01,0 -0.01,0 -0.02,0 -0.01,0 -0.03,0 -0.04,0 -0.01,-0 -0.02,-0 -0.03,-0 -0.01,-0 -0.02,-0 -0.02,-0 -0.01,-0 -0.02,-0 -0.04,-0 -0.01,-0 -0.02,-0 -0.02,-0.01 -0.01,-0.01 -0.02,-0.01 -0.02,-0.02 -0,-0.01 -0.01,-0.02 -0.01,-0.03 -0,-0.01 -0,-0.02 -0,-0.03 -0,-0.01 -0,-0.02 -0,-0.03 -0,-0.01 -0,-0.01 -0,-0.02 -0,-0.01 -0,-0.03 -0,-0.04 0,-0.01 0,-0.01 0,-0.02 0,-0.01 0,-0.01 0,-0.02 0,-0.01 0,-0.02 0,-0.03 0,-0.01 0,-0.02 0,-0.03 0,-0.01 0.01,-0.02 0.01,-0.03 0.01,-0.01 0.02,-0.02 0.03,-0.02 0.01,-0 0.02,-0.01 0.03,-0.01 0.01,-0 0.02,-0 0.03,-0 0.01,-0 0.02,-0 0.02,-0 0.01,-0 0.03,-0 0.04,-0 0.01,0 0.01,-0 0.02,0z"/>
  <path class="fil0" d="M1.33 0.14c-0.01,0 -0.02,0 -0.03,0l-0.02 0c-0.01,0 -0.02,0 -0.03,0 -0.01,0 -0.02,0 -0.02,0.01 -0.01,0 -0.01,0.01 -0.02,0.01 -0,0 -0.01,0.01 -0.01,0.02 -0,0.01 -0,0.02 -0,0.03 -0,0.01 -0,0.02 -0,0.03 -0,0.01 -0,0.01 -0,0.02 -0,0.01 -0,0.01 -0,0.02 -0,0.01 -0,0.03 0,0.04l0 0.02c0,0.01 0,0.02 0,0.02 0,0.01 0,0.02 0,0.02 0,0.01 0,0.02 0.01,0.02 0,0.01 0.01,0.01 0.02,0.02 0.01,0 0.01,0 0.02,0.01 0.01,0 0.02,0 0.03,0l0.02 0c0.01,0 0.02,0 0.03,0 0.01,0 0.03,0 0.04,-0l0.04 -0c0.01,-0 0.02,-0 0.03,-0 0.01,-0 0.02,-0 0.02,-0.01 0.01,-0 0.01,-0 0.01,-0.01 0.01,-0.01 0.01,-0.01 0.01,-0.02 0,-0.01 0,-0.02 0,-0.03 0,-0.01 0,-0.01 0,-0.02 0,-0.01 0,-0.02 0,-0.03 0,-0.01 0,-0.01 0,-0.02 0,-0.01 0,-0.02 -0,-0.03 -0,-0.01 -0,-0.02 -0,-0.03 -0,-0.01 -0,-0.02 -0,-0.03 -0,-0.01 -0,-0.01 -0,-0.02 -0,-0.01 -0,-0.02 -0.01,-0.02 -0,-0.01 -0.01,-0.01 -0.01,-0.01 -0.01,-0 -0.01,-0.01 -0.02,-0.01 -0.01,-0 -0.02,-0 -0.03,-0l-0.07 -0c-0,-0 -0.01,-0 -0.01,-0zm0.01 0.34c-0.01,0 -0.02,-0 -0.02,-0 -0.01,-0 -0.02,-0 -0.03,-0l-0.03 -0c-0.01,-0 -0.03,-0 -0.04,-0 -0.01,-0 -0.02,-0.01 -0.03,-0.01 -0.01,-0.01 -0.02,-0.02 -0.03,-0.03 -0.01,-0.01 -0.01,-0.02 -0.01,-0.04 -0,-0.01 -0,-0.02 -0,-0.03 -0,-0.01 -0,-0.02 -0,-0.03l-0 -0.02c-0,-0.01 -0,-0.03 -0,-0.04 0,-0.01 0,-0.02 0,-0.02 0,-0.01 0,-0.01 0,-0.02 0,-0.01 0,-0.02 0,-0.03 0,-0.01 0,-0.02 0.01,-0.03 0,-0.01 0.01,-0.02 0.02,-0.03 0.01,-0.01 0.02,-0.02 0.04,-0.03 0.01,-0 0.02,-0.01 0.03,-0.01 0.01,-0 0.02,-0 0.03,-0l0.03 -0c0.01,-0 0.03,-0 0.04,-0l0.08 0c0.01,0 0.02,0 0.03,0 0.01,0 0.02,0.01 0.03,0.01 0.01,0.01 0.02,0.02 0.03,0.03 0.01,0.01 0.01,0.02 0.01,0.04 0,0.01 0,0.02 0,0.03 0,0.01 0,0.02 0,0.03 0,0.01 0,0.02 0,0.04 0,0.01 0,0.02 0,0.03 -0,0.01 -0,0.01 -0,0.02 -0,0.01 -0,0.02 -0,0.03 -0,0.01 -0,0.01 -0,0.02 -0,0.01 -0,0.03 -0.01,0.04 -0,0.02 -0.01,0.03 -0.02,0.04 -0.01,0.01 -0.02,0.01 -0.03,0.02 -0.01,0 -0.02,0.01 -0.03,0.01 -0.01,0 -0.02,0 -0.03,0l-0.05 0c-0.01,0 -0.01,0 -0.02,0z"/>
  <path class="fil1" d="M2.01 2.13c0.01,0 0.02,0 0.03,0 0.01,0 0.02,0 0.02,0 0.01,0 0.02,0 0.03,0 0.01,0 0.02,0 0.03,0.01 0.01,0 0.02,0.01 0.02,0.02 0.01,0.01 0.01,0.02 0.01,0.03 0,0.01 0,0.02 0,0.02 0,0.01 0,0.02 0,0.03 0,0.01 0,0.02 0,0.03 0,0.01 0,0.02 0,0.03 -0,0.01 -0,0.01 -0,0.02 -0,0.01 -0,0.02 -0,0.03 -0,0.01 -0,0.01 -0,0.02 -0,0.01 -0,0.02 -0.01,0.03 -0,0.01 -0.01,0.02 -0.02,0.03 -0.01,0.01 -0.01,0.01 -0.02,0.01 -0.01,0 -0.02,0.01 -0.03,0.01 -0.01,0 -0.02,0 -0.03,0 -0.01,0 -0.02,0 -0.02,0 -0.01,0 -0.01,0 -0.02,0 -0.01,0 -0.03,0 -0.04,0 -0.01,-0 -0.02,-0 -0.03,-0 -0.01,-0 -0.02,-0 -0.02,-0 -0.01,-0 -0.02,-0 -0.04,-0 -0.01,-0 -0.02,-0 -0.02,-0.01 -0.01,-0.01 -0.02,-0.01 -0.02,-0.02 -0,-0.01 -0.01,-0.02 -0.01,-0.03 -0,-0.01 -0,-0.02 -0,-0.03 -0,-0.01 -0,-0.02 -0,-0.03 -0,-0.01 -0,-0.01 -0,-0.02 -0,-0.01 -0,-0.03 -0,-0.04 0,-0.01 0,-0.01 0,-0.02 0,-0.01 0,-0.01 0,-0.02 0,-0.01 0,-0.02 0,-0.03 0,-0.01 0,-0.02 0,-0.03 0,-0.01 0.01,-0.02 0.01,-0.03 0.01,-0.01 0.02,-0.02 0.03,-0.02 0.01,-0 0.02,-0.01 0.03,-0.01 0.01,-0 0.02,-0 0.03,-0 0.01,-0 0.02,-0 0.02,-0 0.01,-0 0.03,-0 0.04,-0 0.01,0 0.01,-0 0.02,0z"/>
  <path class="fil2" d="M1.94 2.35l0.03 0c0.01,0 0.03,0 0.04,0l0.03 -0 0 -0.04 -0 -0.03c-0,-0.01 -0,-0.02 -0,-0.03 0,-0 -0,-0 -0,-0l-0.05 -0c-0.01,-0 -0.02,0 -0.03,0l-0.01 0 -0 0.04c-0,0.01 -0,0.02 0,0.04l0 0.02zm0.05 0.24c-0.01,0 -0.01,-0 -0.02,-0l-0.06 -0c-0.02,-0 -0.04,-0 -0.05,-0.01 -0.02,-0 -0.04,-0.01 -0.05,-0.02 -0.03,-0.02 -0.05,-0.04 -0.07,-0.07 -0.01,-0.02 -0.02,-0.04 -0.02,-0.06 -0,-0.01 -0,-0.02 -0,-0.04l-0 -0.04c-0,-0.02 -0,-0.04 -0,-0.05l0 -0.05c0,-0.01 0,-0.02 0,-0.03 0,-0.02 0,-0.03 0.01,-0.05 0.01,-0.03 0.02,-0.05 0.03,-0.07 0.02,-0.03 0.05,-0.04 0.08,-0.06 0.02,-0.01 0.03,-0.01 0.06,-0.01 0.01,-0 0.02,-0 0.03,-0l0.03 -0c0.01,-0 0.03,-0 0.05,-0l0.08 0c0.02,0 0.03,0 0.05,0.01 0.02,0 0.04,0.01 0.06,0.02 0.03,0.01 0.05,0.03 0.06,0.06 0.01,0.02 0.02,0.04 0.03,0.07 0,0.01 0,0.02 0,0.04 0,0.01 0,0.02 0,0.03 0,0.01 0,0.03 0,0.04l0 0.03 -0 0.05c-0,0.01 -0,0.02 -0,0.03 -0,0.02 -0,0.04 -0.01,0.06 -0.01,0.03 -0.03,0.06 -0.05,0.08 -0.02,0.02 -0.04,0.03 -0.06,0.03 -0.02,0.01 -0.03,0.01 -0.05,0.01 -0.01,0 -0.02,0 -0.04,0l-0.04 0c-0.01,0 -0.02,0 -0.03,0z"/>
  <path class="fil1" d="M2.01 2.13c0.01,0 0.02,0 0.03,0 0.01,0 0.02,0 0.02,0 0.01,0 0.02,0 0.03,0 0.01,0 0.02,0 0.03,0.01 0.01,0 0.02,0.01 0.02,0.02 0.01,0.01 0.01,0.02 0.01,0.03 0,0.01 0,0.02 0,0.02 0,0.01 0,0.02 0,0.03 0,0.01 0,0.02 0,0.03 0,0.01 0,0.02 0,0.03 -0,0.01 -0,0.01 -0,0.02 -0,0.01 -0,0.02 -0,0.03 -0,0.01 -0,0.01 -0,0.02 -0,0.01 -0,0.02 -0.01,0.03 -0,0.01 -0.01,0.02 -0.02,0.03 -0.01,0.01 -0.01,0.01 -0.02,0.01 -0.01,0 -0.02,0.01 -0.03,0.01 -0.01,0 -0.02,0 -0.03,0 -0.01,0 -0.02,0 -0.02,0 -0.01,0 -0.01,0 -0.02,0 -0.01,0 -0.03,0 -0.04,0 -0.01,-0 -0.02,-0 -0.03,-0 -0.01,-0 -0.02,-0 -0.02,-0 -0.01,-0 -0.02,-0 -0.04,-0 -0.01,-0 -0.02,-0 -0.02,-0.01 -0.01,-0.01 -0.02,-0.01 -0.02,-0.02 -0,-0.01 -0.01,-0.02 -0.01,-0.03 -0,-0.01 -0,-0.02 -0,-0.03 -0,-0.01 -0,-0.02 -0,-0.03 -0,-0.01 -0,-0.01 -0,-0.02 -0,-0.01 -0,-0.03 -0,-0.04 0,-0.01 0,-0.01 0,-0.02 0,-0.01 0,-0.01 0,-0.02 0,-0.01 0,-0.02 0,-0.03 0,-0.01 0,-0.02 0,-0.03 0,-0.01 0.01,-0.02 0.01,-0.03 0.01,-0.01 0.02,-0.02 0.03,-0.02 0.01,-0 0.02,-0.01 0.03,-0.01 0.01,-0 0.02,-0 0.03,-0 0.01,-0 0.02,-0 0.02,-0 0.01,-0 0.03,-0 0.04,-0 0.01,0 0.01,-0 0.02,0z"/>
  <path class="fil0" d="M1.98 2.15c-0.01,0 -0.02,0 -0.03,0l-0.02 0c-0.01,0 -0.02,0 -0.03,0 -0.01,0 -0.02,0 -0.02,0.01 -0.01,0 -0.01,0.01 -0.02,0.01 -0,0 -0.01,0.01 -0.01,0.02 -0,0.01 -0,0.02 -0,0.03 -0,0.01 -0,0.01 -0,0.02l-0 0.03c-0,0.01 -0,0.01 -0,0.02 -0,0.01 -0,0.03 0,0.04l0 0.02c0,0.01 0,0.02 0,0.02 0,0.01 0,0.02 0,0.02 0,0.01 0,0.02 0.01,0.02 0,0.01 0.01,0.01 0.02,0.02 0,0 0.01,0 0.02,0.01 0.01,0 0.02,0 0.03,0l0.02 0c0.01,0 0.02,0 0.03,0 0.01,0 0.03,0 0.04,-0l0.04 -0c0.01,-0 0.02,-0 0.03,-0 0.01,-0 0.02,-0 0.02,-0.01 0.01,-0 0.01,-0 0.01,-0.01 0.01,-0.01 0.01,-0.01 0.01,-0.02 0,-0.01 0,-0.02 0,-0.03 0,-0.01 0,-0.01 0,-0.02l0 -0.03c0,-0.01 0,-0.01 0,-0.02 0,-0.01 0,-0.02 -0,-0.03 -0,-0.01 -0,-0.02 -0,-0.03 -0,-0.01 -0,-0.02 -0,-0.03 -0,-0.01 -0,-0.01 -0,-0.02 -0,-0.01 -0,-0.02 -0.01,-0.02 -0,-0.01 -0.01,-0.01 -0.01,-0.01 -0.01,-0 -0.01,-0.01 -0.02,-0.01 -0.01,-0 -0.02,-0 -0.03,-0l-0.07 -0c-0,-0 -0.01,-0 -0.01,-0zm0.01 0.34c-0.01,0 -0.02,-0 -0.02,-0 -0.01,-0 -0.02,-0 -0.03,-0l-0.03 -0c-0.01,-0 -0.03,-0 -0.04,-0 -0.01,-0 -0.02,-0.01 -0.03,-0.01 -0.01,-0.01 -0.02,-0.02 -0.03,-0.03 -0.01,-0.01 -0.01,-0.02 -0.01,-0.04 -0,-0.01 -0,-0.02 -0,-0.03 -0,-0.01 -0,-0.02 -0,-0.03l-0 -0.02c-0,-0.01 -0,-0.03 -0,-0.04 0,-0.01 0,-0.02 0,-0.02l0 -0.03c0,-0.01 0,-0.01 0,-0.02 0,-0.01 0,-0.02 0.01,-0.03 0,-0.01 0.01,-0.02 0.02,-0.03 0.01,-0.01 0.02,-0.02 0.04,-0.03 0.01,-0 0.02,-0.01 0.03,-0.01 0.01,-0 0.02,-0 0.03,-0l0.03 -0c0.01,-0 0.03,-0 0.04,-0l0.08 0c0.01,0 0.02,0 0.03,0 0.01,0 0.02,0.01 0.03,0.01 0.01,0.01 0.02,0.02 0.03,0.03 0.01,0.01 0.01,0.02 0.01,0.04 0,0.01 0,0.02 0,0.03 0,0.01 0,0.02 0,0.03 0,0.01 0,0.02 0,0.04 0,0.01 0,0.02 0,0.03 -0,0.01 -0,0.01 -0,0.02l-0 0.03c-0,0.01 -0,0.01 -0,0.02 -0,0.01 -0,0.02 -0.01,0.04 -0,0.02 -0.01,0.03 -0.02,0.04 -0.01,0.01 -0.02,0.01 -0.03,0.02 -0.01,0 -0.02,0.01 -0.03,0.01 -0.01,0 -0.02,0 -0.03,0l-0.05 0c-0.01,0 -0.01,0 -0.02,0z"/>
  <path class="fil1" d="M2.41 0.88c0.01,0 0.02,0 0.03,0 0.01,0 0.02,0 0.02,0 0.01,0 0.02,0 0.03,0 0.01,0 0.02,0 0.03,0.01 0.01,0 0.02,0.01 0.02,0.02 0.01,0.01 0.01,0.02 0.01,0.03 0,0.01 0,0.02 0,0.02 0,0.01 0,0.02 0,0.03 0,0.01 0,0.02 0,0.03 0,0.01 0,0.02 0,0.03 -0,0.01 -0,0.01 -0,0.02 -0,0.01 -0,0.02 -0,0.03 -0,0.01 -0,0.01 -0,0.02 -0,0.01 -0,0.02 -0.01,0.03 -0,0.01 -0.01,0.02 -0.02,0.03 -0.01,0.01 -0.01,0.01 -0.02,0.01 -0.01,0 -0.02,0.01 -0.03,0.01 -0.01,0 -0.02,0 -0.03,0 -0.01,0 -0.02,0 -0.02,0 -0.01,0 -0.01,0 -0.02,0 -0.01,0 -0.03,0 -0.04,0 -0.01,-0 -0.02,-0 -0.03,-0 -0.01,-0 -0.02,-0 -0.02,-0 -0.01,-0 -0.02,-0 -0.04,-0 -0.01,-0 -0.02,-0 -0.02,-0.01 -0.01,-0.01 -0.02,-0.01 -0.02,-0.02 -0,-0.01 -0.01,-0.02 -0.01,-0.03 -0,-0.01 -0,-0.02 -0,-0.03 -0,-0.01 -0,-0.02 -0,-0.03 -0,-0.01 -0,-0.01 -0,-0.02 -0,-0.01 -0,-0.03 -0,-0.04 0,-0.01 0,-0.01 0,-0.02 0,-0.01 0,-0.01 0,-0.02 0,-0.01 0,-0.02 0,-0.03 0,-0.01 0,-0.02 0,-0.03 0,-0.01 0.01,-0.02 0.01,-0.03 0.01,-0.01 0.02,-0.02 0.03,-0.02 0.01,-0 0.02,-0.01 0.03,-0.01 0.01,-0 0.02,-0 0.03,-0 0.01,-0 0.02,-0 0.02,-0 0.01,-0 0.03,-0 0.04,-0 0.01,0 0.01,-0 0.02,0z"/>
  <path class="fil2" d="M2.34 1.09l0.03 0c0.01,0 0.03,0 0.04,0l0.03 -0 0 -0.04 -0 -0.02c-0,-0.01 -0,-0.02 -0,-0.03 0,-0 -0,-0 -0,-0l-0.05 -0c-0.01,-0 -0.02,0 -0.03,0l-0.01 0 -0 0.04c-0,0.01 -0,0.02 0,0.04l0 0.02zm0.05 0.24c-0.01,0 -0.01,-0 -0.02,-0l-0.06 -0c-0.02,-0 -0.04,-0 -0.05,-0.01 -0.02,-0 -0.04,-0.01 -0.05,-0.02 -0.03,-0.02 -0.05,-0.04 -0.07,-0.07 -0.01,-0.02 -0.02,-0.04 -0.02,-0.06 -0,-0.01 -0,-0.02 -0,-0.04l-0 -0.05c-0,-0.01 -0,-0.03 -0,-0.05l0 -0.05c0,-0.01 0,-0.02 0,-0.03 0,-0.02 0,-0.03 0.01,-0.05 0.01,-0.03 0.02,-0.05 0.03,-0.07 0.02,-0.03 0.05,-0.04 0.08,-0.06 0.02,-0.01 0.03,-0.01 0.06,-0.01 0.01,-0 0.02,-0 0.03,-0l0.03 -0c0.01,-0 0.03,-0 0.05,-0l0.08 0c0.02,0 0.03,0 0.05,0.01 0.02,0 0.04,0.01 0.06,0.02 0.03,0.02 0.05,0.04 0.06,0.06 0.01,0.02 0.02,0.04 0.03,0.07 0,0.01 0,0.03 0,0.04 0,0.01 0,0.02 0,0.03 0,0.01 0,0.03 0,0.04l0 0.03 -0 0.08c-0,0.02 -0,0.04 -0.01,0.06 -0.01,0.03 -0.03,0.06 -0.05,0.08 -0.02,0.01 -0.04,0.03 -0.06,0.03 -0.02,0.01 -0.03,0.01 -0.05,0.01 -0.01,0 -0.02,0 -0.04,0l-0.04 0c-0.01,0 -0.02,0 -0.03,0z"/>
  <path class="fil1" d="M2.41 0.88c0.01,0 0.02,0 0.03,0 0.01,0 0.02,0 0.02,0 0.01,0 0.02,0 0.03,0 0.01,0 0.02,0 0.03,0.01 0.01,0 0.02,0.01 0.02,0.02 0.01,0.01 0.01,0.02 0.01,0.03 0,0.01 0,0.02 0,0.02 0,0.01 0,0.02 0,0.03 0,0.01 0,0.02 0,0.03 0,0.01 0,0.02 0,0.03 -0,0.01 -0,0.01 -0,0.02 -0,0.01 -0,0.02 -0,0.03 -0,0.01 -0,0.01 -0,0.02 -0,0.01 -0,0.02 -0.01,0.03 -0,0.01 -0.01,0.02 -0.02,0.03 -0.01,0.01 -0.01,0.01 -0.02,0.01 -0.01,0 -0.02,0.01 -0.03,0.01 -0.01,0 -0.02,0 -0.03,0 -0.01,0 -0.02,0 -0.02,0 -0.01,0 -0.01,0 -0.02,0 -0.01,0 -0.03,0 -0.04,0 -0.01,-0 -0.02,-0 -0.03,-0 -0.01,-0 -0.02,-0 -0.02,-0 -0.01,-0 -0.02,-0 -0.04,-0 -0.01,-0 -0.02,-0 -0.02,-0.01 -0.01,-0.01 -0.02,-0.01 -0.02,-0.02 -0,-0.01 -0.01,-0.02 -0.01,-0.03 -0,-0.01 -0,-0.02 -0,-0.03 -0,-0.01 -0,-0.02 -0,-0.03 -0,-0.01 -0,-0.01 -0,-0.02 -0,-0.01 -0,-0.03 -0,-0.04 0,-0.01 0,-0.01 0,-0.02 0,-0.01 0,-0.01 0,-0.02 0,-0.01 0,-0.02 0,-0.03 0,-0.01 0,-0.02 0,-0.03 0,-0.01 0.01,-0.02 0.01,-0.03 0.01,-0.01 0.02,-0.02 0.03,-0.02 0.01,-0 0.02,-0.01 0.03,-0.01 0.01,-0 0.02,-0 0.03,-0 0.01,-0 0.02,-0 0.02,-0 0.01,-0 0.03,-0 0.04,-0 0.01,0 0.01,-0 0.02,0z"/>
  <path class="fil0" d="M2.38 0.9c-0.01,0 -0.02,0 -0.03,0l-0.02 0c-0.01,0 -0.02,0 -0.03,0 -0.01,0 -0.02,0 -0.02,0.01 -0.01,0 -0.01,0.01 -0.02,0.01 -0,0 -0.01,0.01 -0.01,0.02 -0,0.01 -0,0.02 -0,0.03 -0,0.01 -0,0.01 -0,0.02 -0,0.01 -0,0.02 -0,0.03l-0 0.02c-0,0.01 -0,0.03 0,0.04l0 0.02c0,0.01 0,0.02 0,0.02 0,0.01 0,0.02 0,0.02 0,0.01 0,0.02 0.01,0.02 0,0.01 0.01,0.01 0.02,0.02 0,0 0.01,0 0.02,0.01 0.01,0 0.02,0 0.03,0l0.02 0c0.01,0 0.02,0 0.03,0 0.01,0 0.03,0 0.04,-0l0.04 -0c0.01,-0 0.02,-0 0.03,-0 0.01,-0 0.02,-0 0.02,-0.01 0.01,-0 0.01,-0 0.01,-0.01 0.01,-0.01 0.01,-0.01 0.01,-0.02 0,-0.01 0,-0.02 0,-0.03 0,-0.01 0,-0.01 0,-0.02l0 -0.05c0,-0.01 0,-0.02 -0,-0.03 -0,-0.01 -0,-0.02 -0,-0.03 -0,-0.01 -0,-0.02 -0,-0.03 -0,-0.01 -0,-0.01 -0,-0.02 -0,-0.01 -0,-0.02 -0.01,-0.02 -0,-0.01 -0.01,-0.01 -0.01,-0.01 -0.01,-0 -0.01,-0.01 -0.02,-0.01 -0.01,-0 -0.02,-0 -0.03,-0l-0.07 -0c-0,-0 -0.01,-0 -0.01,-0zm0.01 0.34c-0.01,0 -0.02,-0 -0.02,-0 -0.01,-0 -0.02,-0 -0.03,-0l-0.03 -0c-0.01,-0 -0.03,-0 -0.04,-0 -0.01,-0 -0.02,-0.01 -0.03,-0.01 -0.01,-0.01 -0.02,-0.02 -0.03,-0.03 -0.01,-0.01 -0.01,-0.02 -0.01,-0.04 -0,-0.01 -0,-0.02 -0,-0.03 -0,-0.01 -0,-0.02 -0,-0.03l-0 -0.02c-0,-0.01 -0,-0.03 -0,-0.04l0 -0.02c0,-0.01 0,-0.01 0,-0.02 0,-0.01 0,-0.02 0,-0.03 0,-0.01 0,-0.02 0.01,-0.03 0,-0.01 0.01,-0.02 0.02,-0.03 0.01,-0.01 0.02,-0.02 0.04,-0.03 0.01,-0 0.02,-0.01 0.03,-0.01 0.01,-0 0.02,-0 0.03,-0l0.03 -0c0.01,-0 0.03,-0 0.04,-0l0.08 0c0.01,0 0.02,0 0.03,0 0.01,0 0.02,0.01 0.03,0.01 0.01,0.01 0.02,0.02 0.03,0.03 0.01,0.01 0.01,0.02 0.01,0.04 0,0.01 0,0.02 0,0.03 0,0.01 0,0.02 0,0.03 0,0.01 0,0.02 0,0.04 0,0.01 0,0.02 0,0.03l-0 0.05c-0,0.01 -0,0.01 -0,0.02 -0,0.01 -0,0.02 -0.01,0.04 -0,0.02 -0.01,0.03 -0.02,0.04 -0.01,0.01 -0.02,0.01 -0.03,0.02 -0.01,0 -0.02,0.01 -0.03,0.01 -0.01,0 -0.02,0 -0.03,0l-0.05 0c-0.01,0 -0.01,0 -0.02,0z"/>
  <path class="fil3" d="M1.36 1.23c0.01,0 0.02,0 0.03,0 0.01,0 0.02,0 0.02,0 0.01,0 0.02,0 0.03,0 0.01,0 0.02,0 0.03,0.01 0.01,0 0.02,0.01 0.02,0.02 0.01,0.01 0.01,0.02 0.01,0.03 0,0.01 0,0.02 0,0.02 0,0.01 0,0.02 0,0.03 0,0.01 0,0.02 0,0.03 0,0.01 0,0.02 0,0.03 -0,0.01 -0,0.01 -0,0.02 -0,0.01 -0,0.02 -0,0.03 -0,0.01 -0,0.01 -0,0.02 -0,0.01 -0,0.02 -0.01,0.03 -0,0.01 -0.01,0.02 -0.02,0.03 -0.01,0.01 -0.01,0.01 -0.02,0.01 -0.01,0 -0.02,0.01 -0.03,0.01 -0.01,0 -0.02,0 -0.03,0 -0.01,0 -0.02,0 -0.02,0 -0.01,0 -0.01,0 -0.02,0 -0.01,0 -0.03,0 -0.04,0 -0.01,-0 -0.02,-0 -0.03,-0 -0.01,-0 -0.02,-0 -0.02,-0 -0.01,-0 -0.02,-0 -0.04,-0 -0.01,-0 -0.02,-0 -0.02,-0.01 -0.01,-0.01 -0.02,-0.01 -0.02,-0.02 -0,-0.01 -0.01,-0.02 -0.01,-0.03 -0,-0.01 -0,-0.02 -0,-0.03 -0,-0.01 -0,-0.02 -0,-0.03 -0,-0.01 -0,-0.01 -0,-0.02 -0,-0.01 -0,-0.03 -0,-0.04 0,-0.01 0,-0.01 0,-0.02 0,-0.01 0,-0.01 0,-0.02 0,-0.01 0,-0.02 0,-0.03 0,-0.01 0,-0.02 0,-0.03 0,-0.01 0.01,-0.02 0.01,-0.03 0.01,-0.01 0.02,-0.02 0.03,-0.02 0.01,-0 0.02,-0.01 0.03,-0.01 0.01,-0 0.02,-0 0.03,-0 0.01,-0 0.02,-0 0.02,-0 0.01,-0 0.03,-0 0.04,-0 0.01,0 0.01,-0 0.02,0z"/>
 </g>
</svg>
