<?xml version="1.0" encoding="UTF-8"?>
<!DOCTYPE svg PUBLIC "-//W3C//DTD SVG 1.1//EN" "http://www.w3.org/Graphics/SVG/1.1/DTD/svg11.dtd">
<!-- Creator: CorelDRAW 2021 (64-Bit) -->
<svg xmlns="http://www.w3.org/2000/svg" xml:space="preserve" width="0.393693in" height="0.424961in" version="1.1" style="shape-rendering:geometricPrecision; text-rendering:geometricPrecision; image-rendering:optimizeQuality; fill-rule:evenodd; clip-rule:evenodd"
viewBox="0 0 1.95 2.11"
 xmlns:xlink="http://www.w3.org/1999/xlink"
 xmlns:xodm="http://www.corel.com/coreldraw/odm/2003">
 <defs>
  <style type="text/css">
   <![CDATA[
    .fil0 {fill:#FEFEFE;fill-rule:nonzero}
    .fil1 {fill:#313131;fill-rule:nonzero}
   ]]>
  </style>
 </defs>
 <g id="Layer_x0020_1">
  <metadata id="CorelCorpID_0Corel-Layer"/>
  <path class="fil0" d="M0.97 1.07c-0.06,0 -0.11,0.05 -0.11,0.11 0,0.06 0.05,0.11 0.11,0.11 0.06,0 0.11,-0.05 0.11,-0.11 0,-0.06 -0.05,-0.11 -0.11,-0.11zm0 0.26c-0.08,0 -0.15,-0.07 -0.15,-0.15 0,-0.08 0.07,-0.15 0.15,-0.15 0.08,0 0.15,0.07 0.15,0.15 0,0.08 -0.07,0.15 -0.15,0.15z"/>
  <path class="fil1" d="M0.82 1.18c0,0.08 0.07,0.15 0.15,0.15 0.08,0 0.15,-0.07 0.15,-0.15 0,-0.08 -0.07,-0.15 -0.15,-0.15 -0.08,0 -0.15,0.07 -0.15,0.15zm0.05 0c0,-0.06 0.05,-0.11 0.11,-0.11 0.06,0 0.11,0.05 0.11,0.11 0,0.06 -0.05,0.11 -0.11,0.11 -0.06,0 -0.11,-0.05 -0.11,-0.11z"/>
  <path class="fil0" d="M0.85 1.18c0,-0.07 0.06,-0.13 0.13,-0.13 0.07,0 0.13,0.06 0.13,0.13 0,0.07 -0.06,0.13 -0.13,0.13 -0.07,0 -0.13,-0.06 -0.13,-0.13z"/>
  <path class="fil0" d="M0.97 1.07c-0.06,0 -0.11,0.05 -0.11,0.11 0,0.06 0.05,0.11 0.11,0.11 0.06,0 0.11,-0.05 0.11,-0.11 0,-0.06 -0.05,-0.11 -0.11,-0.11zm0 0.26c-0.08,0 -0.15,-0.07 -0.15,-0.15 0,-0.08 0.07,-0.15 0.15,-0.15 0.08,0 0.15,0.07 0.15,0.15 0,0.08 -0.07,0.15 -0.15,0.15z"/>
  <polygon class="fil0" points="0.99,1.18 0.94,1.18 0.94,0.47 0.99,0.47 "/>
  <polygon class="fil0" points="0.99,0.29 0.94,0.29 0.94,0.18 0.99,0.18 "/>
  <polygon class="fil0" points="0.99,2.09 0.94,2.09 0.94,1.95 0.99,1.95 "/>
  <path class="fil0" d="M0.98 0.2c-0.51,0 -0.93,0.42 -0.93,0.93 0,0.51 0.42,0.93 0.93,0.93 0.51,0 0.93,-0.42 0.93,-0.93 0,-0.51 -0.42,-0.93 -0.93,-0.93zm0 1.9c-0.54,0 -0.98,-0.44 -0.98,-0.98 0,-0.54 0.44,-0.98 0.98,-0.98 0.54,0 0.98,0.44 0.98,0.98 0,0.54 -0.44,0.98 -0.98,0.98z"/>
  <polygon class="fil0" points="1.93,1.16 1.82,1.16 1.82,1.12 1.93,1.12 "/>
  <polygon class="fil0" points="0.16,1.16 0.02,1.16 0.02,1.12 0.16,1.12 "/>
  <polygon class="fil0" points="1.61,0.53 1.57,0.5 1.63,0.44 1.66,0.47 "/>
  <polygon class="fil0" points="0.32,1.82 0.29,1.79 0.34,1.73 0.38,1.76 "/>
  <polygon class="fil0" points="1.63,1.82 1.57,1.76 1.61,1.73 1.66,1.79 "/>
  <polygon class="fil0" points="0.34,0.53 0.29,0.47 0.32,0.44 0.38,0.5 "/>
  <path class="fil0" d="M0.84 0.06l-0.01 -0.05c0.09,-0.01 0.19,-0.01 0.29,0l-0.01 0.05c-0.09,-0.01 -0.18,-0.01 -0.27,0z"/>
 </g>
</svg>
