<?xml version="1.0" encoding="UTF-8"?>
<!DOCTYPE svg PUBLIC "-//W3C//DTD SVG 1.1//EN" "http://www.w3.org/Graphics/SVG/1.1/DTD/svg11.dtd">
<!-- Creator: CorelDRAW 2021 (64-Bit) -->
<svg xmlns="http://www.w3.org/2000/svg" xml:space="preserve" width="0.410965in" height="0.433079in" version="1.1" style="shape-rendering:geometricPrecision; text-rendering:geometricPrecision; image-rendering:optimizeQuality; fill-rule:evenodd; clip-rule:evenodd"
viewBox="0 0 2.13 2.24"
 xmlns:xlink="http://www.w3.org/1999/xlink"
 xmlns:xodm="http://www.corel.com/coreldraw/odm/2003">
 <defs>
  <style type="text/css">
   <![CDATA[
    .fil1 {fill:#FEFEFE}
    .fil0 {fill:#FEFEFE;fill-rule:nonzero}
   ]]>
  </style>
 </defs>
 <g id="Layer_x0020_1">
  <metadata id="CorelCorpID_0Corel-Layer"/>
  <g id="_2861174058272">
   <path class="fil0" d="M1.06 2.24c-0.27,0 -0.49,-0.08 -0.67,-0.23l0.03 -0.04c0.17,0.15 0.38,0.22 0.63,0.22 0.25,0 0.44,-0.07 0.62,-0.22l0.03 0.04c-0.19,0.16 -0.39,0.23 -0.65,0.23z"/>
   <path class="fil0" d="M0.09 1.59c-0.06,-0.13 -0.09,-0.26 -0.09,-0.41 0,-0.5 0.33,-0.92 0.81,-1.03l0.01 0.05c-0.45,0.1 -0.77,0.5 -0.77,0.98 0,0.15 0.02,0.26 0.08,0.39l-0.05 0.02z"/>
   <path class="fil0" d="M2.04 1.59l-0.05 -0.02c0.06,-0.12 0.08,-0.24 0.08,-0.39 0,-0.47 -0.33,-0.88 -0.79,-0.98l0.01 -0.05c0.48,0.11 0.83,0.54 0.83,1.04 0,0.16 -0.03,0.28 -0.08,0.41z"/>
   <path class="fil0" d="M1.89 1.71c-0.05,0 -0.09,0.04 -0.09,0.09 0,0.05 0.04,0.09 0.09,0.09 0.05,0 0.09,-0.04 0.09,-0.09 0,-0.05 -0.04,-0.09 -0.09,-0.09zm0 0.23c-0.08,0 -0.14,-0.06 -0.14,-0.14 0,-0.08 0.06,-0.14 0.14,-0.14 0.08,0 0.14,0.06 0.14,0.14 0,0.08 -0.06,0.14 -0.14,0.14z"/>
   <path class="fil0" d="M0.23 1.71c-0.05,0 -0.09,0.04 -0.09,0.09 0,0.05 0.04,0.09 0.09,0.09 0.05,0 0.09,-0.04 0.09,-0.09 0,-0.05 -0.04,-0.09 -0.09,-0.09zm0 0.23c-0.08,0 -0.14,-0.06 -0.14,-0.14 0,-0.08 0.06,-0.14 0.14,-0.14 0.08,0 0.14,0.06 0.14,0.14 0,0.08 -0.06,0.14 -0.14,0.14z"/>
   <path class="fil0" d="M1.06 0.05c-0.05,0 -0.09,0.04 -0.09,0.09 0,0.05 0.04,0.09 0.09,0.09 0.05,0 0.09,-0.04 0.09,-0.09 0,-0.05 -0.04,-0.09 -0.09,-0.09zm0 0.23c-0.08,0 -0.14,-0.06 -0.14,-0.14 0,-0.08 0.06,-0.14 0.14,-0.14 0.08,0 0.14,0.06 0.14,0.14 0,0.08 -0.06,0.14 -0.14,0.14z"/>
   <path class="fil1" d="M1.1 0.85c0.02,0 0.04,0 0.06,0 0.02,0 0.03,0 0.05,0 0.02,0 0.04,0 0.06,0.01 0.02,0 0.03,0.01 0.05,0.02 0.02,0.01 0.03,0.02 0.04,0.04 0.01,0.02 0.02,0.04 0.02,0.05 0,0.02 0,0.03 0.01,0.05 0,0.02 0,0.04 0,0.05 0,0.02 0,0.04 0,0.07 0,0.02 0,0.03 0,0.05 -0,0.01 -0,0.03 -0,0.04 -0,0.02 -0,0.03 -0,0.05 -0,0.01 -0,0.03 -0,0.04 -0,0.02 -0,0.04 -0.01,0.06 -0.01,0.02 -0.02,0.04 -0.03,0.06 -0.01,0.01 -0.02,0.02 -0.04,0.02 -0.02,0.01 -0.03,0.01 -0.05,0.01 -0.02,0 -0.03,0 -0.05,0 -0.01,0 -0.03,0 -0.04,0 -0.01,0 -0.03,0 -0.04,0 -0.03,0 -0.05,0 -0.08,0 -0.02,-0 -0.04,-0 -0.05,-0 -0.02,-0 -0.03,-0 -0.05,-0 -0.02,-0 -0.04,-0 -0.07,-0.01 -0.02,-0 -0.03,-0.01 -0.04,-0.02 -0.02,-0.01 -0.03,-0.03 -0.04,-0.05 -0.01,-0.02 -0.01,-0.04 -0.02,-0.06 -0,-0.02 -0,-0.03 -0,-0.05 -0,-0.02 -0,-0.03 -0,-0.05 -0,-0.01 -0,-0.03 -0,-0.04 -0,-0.03 -0,-0.05 -0,-0.08 0,-0.01 0,-0.03 0,-0.04 0,-0.01 0,-0.03 0,-0.04 0,-0.02 0,-0.03 0,-0.05 0,-0.02 0,-0.04 0.01,-0.06 0,-0.02 0.01,-0.03 0.02,-0.05 0.01,-0.02 0.03,-0.03 0.05,-0.04 0.02,-0.01 0.04,-0.01 0.05,-0.01 0.02,-0 0.03,-0 0.05,-0 0.02,-0 0.03,-0 0.05,-0 0.02,-0 0.05,-0 0.07,-0 0.01,0 0.03,-0 0.04,0z"/>
   <path class="fil0" d="M0.98 0.85c-0.02,0 -0.03,0 -0.05,0 -0.02,0 -0.03,0 -0.05,0 -0.02,0 -0.04,0.01 -0.05,0.01 -0.02,0.01 -0.04,0.02 -0.05,0.04 -0.01,0.01 -0.02,0.03 -0.02,0.05 -0,0.02 -0.01,0.04 -0.01,0.06 -0,0.02 -0,0.03 -0,0.05 -0,0.01 -0,0.03 -0,0.04 -0,0.01 -0,0.03 -0,0.04 -0,0.03 -0,0.05 0,0.08 0,0.01 0,0.03 0,0.04 0,0.02 0,0.03 0,0.05 0,0.02 0,0.03 0,0.05 0,0.02 0.01,0.04 0.02,0.06 0.01,0.02 0.02,0.03 0.04,0.05 0.01,0.01 0.03,0.01 0.04,0.02 0.02,0 0.04,0.01 0.07,0.01 0.02,0 0.03,0 0.05,0 0.02,0 0.04,0 0.05,0 0.03,0 0.05,0 0.08,-0 0.01,-0 0.03,-0 0.04,-0 0.01,-0 0.03,-0 0.04,-0 0.02,-0 0.03,-0 0.05,-0 0.02,-0 0.03,-0.01 0.05,-0.01 0.01,-0.01 0.03,-0.01 0.04,-0.02 0.02,-0.02 0.03,-0.04 0.03,-0.06 0.01,-0.02 0.01,-0.04 0.01,-0.06 0,-0.01 0,-0.03 0,-0.04 0,-0.02 0,-0.03 0,-0.05 0,-0.01 0,-0.03 0,-0.04 0,-0.02 0,-0.03 -0,-0.05 -0,-0.02 -0,-0.04 -0,-0.07 -0,-0.02 -0,-0.04 -0,-0.05 -0,-0.02 -0,-0.03 -0.01,-0.05 -0,-0.02 -0.01,-0.04 -0.02,-0.05 -0.01,-0.02 -0.02,-0.03 -0.04,-0.04 -0.02,-0.01 -0.03,-0.01 -0.05,-0.02 -0.02,-0 -0.04,-0.01 -0.06,-0.01 -0.02,-0 -0.03,-0 -0.05,-0 -0.02,-0 -0.04,-0 -0.06,-0 -0.01,-0 -0.03,-0 -0.04,-0 -0,-0 -0.01,-0 -0.01,-0 -0.02,0 -0.04,0 -0.06,0z"/>
  </g>
 </g>
</svg>
