<?xml version="1.0" encoding="UTF-8"?>
<!DOCTYPE svg PUBLIC "-//W3C//DTD SVG 1.1//EN" "http://www.w3.org/Graphics/SVG/1.1/DTD/svg11.dtd">
<!-- Creator: CorelDRAW 2021 (64-Bit) -->
<svg xmlns="http://www.w3.org/2000/svg" xml:space="preserve" width="0.245177in" height="0.397827in" version="1.1" style="shape-rendering:geometricPrecision; text-rendering:geometricPrecision; image-rendering:optimizeQuality; fill-rule:evenodd; clip-rule:evenodd"
viewBox="0 0 0.67 1.09"
 xmlns:xlink="http://www.w3.org/1999/xlink"
 xmlns:xodm="http://www.corel.com/coreldraw/odm/2003">
 <defs>
  <style type="text/css">
   <![CDATA[
    .fil1 {fill:#FEFEFE}
    .fil0 {fill:#FEFEFE;fill-rule:nonzero}
   ]]>
  </style>
 </defs>
 <g id="Layer_x0020_1">
  <metadata id="CorelCorpID_0Corel-Layer"/>
  <g id="_2861535381552">
   <path class="fil0" d="M0.45 0.09l-0.03 0 0 -0.03c0,-0.01 -0,-0.03 -0.02,-0.03l-0.11 0c-0.02,0 -0.03,0.01 -0.03,0.03l0 0.03 -0.03 0 0 -0.03c0,-0.03 0.03,-0.05 0.06,-0.05l0.11 0c0.03,0 0.05,0.02 0.05,0.05l0 0.03z"/>
   <path class="fil0" d="M0.06 0.17c-0.01,0 -0.03,0 -0.03,0.02l0 0.85c0,0.01 0.01,0.03 0.03,0.03l0.56 0c0.01,0 0.03,-0.01 0.03,-0.03l0 -0.85c0,-0.02 -0.02,-0.02 -0.03,-0.02l-0.56 0zm0.56 0.93l-0.56 0c-0.03,0 -0.06,-0.03 -0.06,-0.06l0 -0.85c0,-0.03 0.02,-0.05 0.06,-0.05l0.56 0c0.03,0 0.06,0.02 0.06,0.05l0 0.85c0,0.03 -0.03,0.06 -0.06,0.06z"/>
   <polygon class="fil1" points="0.17,0.61 0.33,0.61 0.23,0.86 0.52,0.55 0.36,0.55 0.43,0.34 "/>
   <polygon class="fil0" points="0.17,0.61 0.33,0.61 0.23,0.86 0.52,0.55 0.36,0.55 0.43,0.34 "/>
  </g>
 </g>
</svg>
