<?xml version="1.0" encoding="UTF-8"?>
<!DOCTYPE svg PUBLIC "-//W3C//DTD SVG 1.1//EN" "http://www.w3.org/Graphics/SVG/1.1/DTD/svg11.dtd">
<!-- Creator: CorelDRAW 2021 (64-Bit) -->
<svg xmlns="http://www.w3.org/2000/svg" xml:space="preserve" width="0.425193in" height="0.372051in" version="1.1" style="shape-rendering:geometricPrecision; text-rendering:geometricPrecision; image-rendering:optimizeQuality; fill-rule:evenodd; clip-rule:evenodd"
viewBox="0 0 2.03 1.78"
 xmlns:xlink="http://www.w3.org/1999/xlink"
 xmlns:xodm="http://www.corel.com/coreldraw/odm/2003">
 <defs>
  <style type="text/css">
   <![CDATA[
    .fil1 {fill:#FEFEFE}
    .fil0 {fill:#FEFEFE;fill-rule:nonzero}
   ]]>
  </style>
 </defs>
 <g id="Layer_x0020_1">
  <metadata id="CorelCorpID_0Corel-Layer"/>
  <path class="fil0" d="M0.11 0.04c-0.03,0 -0.06,0.03 -0.06,0.06l0 1.14c0,0.03 0.03,0.06 0.06,0.06l1.82 0c0.03,0 0.06,-0.03 0.06,-0.06l0 -1.14c0,-0.03 -0.03,-0.06 -0.06,-0.06l-1.82 0zm1.82 1.31l-1.82 0c-0.06,0 -0.11,-0.05 -0.11,-0.11l0 -1.14c0,-0.06 0.05,-0.11 0.11,-0.11l1.82 0c0.06,0 0.11,0.05 0.11,0.11l0 1.14c0,0.06 -0.05,0.11 -0.11,0.11z"/>
  <polygon class="fil0" points="1.99,1.14 0.04,1.14 0.04,1.1 1.99,1.1 "/>
  <polygon class="fil0" points="1.37,1.78 0.66,1.78 0.66,1.73 1.37,1.73 "/>
  <path class="fil0" d="M0.7 1.77l-0.06 0 0 -0.04 0.06 0c0.03,0 0.06,-0.03 0.06,-0.06l0 -0.23 0.04 0 0 0.23c0,0.06 -0.05,0.11 -0.11,0.11z"/>
  <path class="fil0" d="M1.37 1.77l-0.04 0c-0.06,0 -0.11,-0.05 -0.11,-0.11l0 -0.23 0.04 0 0 0.23c0,0.03 0.03,0.06 0.06,0.06l0.04 0 0 0.04z"/>
  <polygon class="fil1" points="1.2,0.51 1.01,0.56 0.82,0.51 0.75,0.49 0.76,0.59 1.01,0.73 1.27,0.59 1.28,0.49 "/>
  <polygon class="fil0" points="1.2,0.51 1.01,0.56 0.82,0.51 0.75,0.49 0.76,0.59 1.01,0.73 1.27,0.59 1.28,0.49 "/>
 </g>
</svg>
