<svg id="Ebene_2" data-name="Ebene 2" xmlns="http://www.w3.org/2000/svg" viewBox="0 0 566.93 85.04"><path d="M121.72,41.56H135V38.18c0-7-4.15-9.49-10-9.49-6.68,0-10.07,3.22-10.32,8.22h-7.2c.51-8.81,7.28-14.06,18-14.06,15.66,0,16.84,11.69,16.84,15.5V62.47h6.52v5.42h-7.53c-4.32,0-5.59-2-5.76-5l-.08-2.29h-.51c-2,4.91-7.79,8.13-15.07,8.13-9,0-14.22-5.42-14.22-13.55C105.64,46.47,111.82,41.56,121.72,41.56ZM113.17,56c0,4.49,3.39,6.77,8.38,6.77,8.38,0,13.46-5.59,13.46-13.54V46.9H122.4c-6,0-9.23,2.71-9.23,6.43Z"/><path d="M194.11,67.89h-6.27l-1-8.21h-.68c-2.37,5.42-8,9.06-15,9.06-9.06,0-14.64-6-14.64-16.85V23.7h7.28V50.88c0,7.95,3.55,11.68,9.82,11.68,8,0,13.12-6.44,13.12-15.75V23.7h7.37Z"/><path d="M227.46,61.8v6.09H217.3c-4.74,0-6.43-2.45-6.43-6.18V29.79h-8V23.7h8V9.05h7.28V23.7h9.23v6.09h-9.23v32Z"/><path d="M255.65,22.85c12.45,0,21.17,8.3,21.17,22.94,0,13.8-7.71,22.95-21.17,22.95-13.29,0-21.25-9-21.25-22.95C234.4,31.32,243,22.85,255.65,22.85Zm0,39.79c7.54,0,13.72-4.65,13.72-13.2V42.58c0-8.21-5.85-13.55-13.72-13.55s-13.71,5.42-13.71,13.55v6.86C241.94,58.07,248.2,62.64,255.65,62.64Z"/><path d="M305.18,61c5.16,0,8-2.2,8-5.75,0-4-3.3-4.66-5.17-5l-8.72-1.61c-9.14-1.61-12.61-6.35-12.61-12.44,0-9,7.11-14,17.95-14,11.26,0,17.95,5.58,18.11,14H312.37c-.08-4.31-3.13-6.35-7.79-6.35-4.82,0-7.36,2.12-7.36,5.42,0,4.15,4.06,4.83,6.35,5.17l8.21,1.44c8.89,1.44,12.27,6.35,12.27,12.53,0,9.14-7.53,14.39-18.87,14.39C292.9,68.74,286,62.64,286,54h10.33C296.37,58.49,299.84,61,305.18,61Z"/><path d="M352.41,22.18c12.36,0,20.66,7.61,20.66,20.57a33.44,33.44,0,0,1-.34,5.08H341.58v2.45c0,6.18,4.4,10.25,10.92,10.25,5.33,0,9.23-2.63,10.41-6.44h10.42c-1.78,8.81-9.91,14.65-20.83,14.65-13.63,0-21.67-9.15-21.67-23.37C330.83,30.73,339.29,22.18,352.41,22.18Zm10.16,18.45V39.45c0-5.51-4.15-9.15-10.33-9.15-6.34,0-10.66,3.81-10.66,9.48v.85Z"/><path d="M403.21,68.74c-13.63,0-21.67-9-21.67-23.2,0-14.9,8.8-23.36,21.92-23.36,11.26,0,19,6.51,20.32,16.42H413.37c-1.1-5.25-5.08-7.79-10.25-7.79-6.77,0-10.92,4.66-10.92,11.35v7.19c0,6.86,4.49,10.75,10.92,10.75,5.59,0,9.49-3.13,10.33-8.21h10.41C422.59,62.56,414.55,68.74,403.21,68.74Z"/><path d="M472.8,67.89h-9.15l-1.35-8.21h-.76c-2.54,5.5-7.71,9.06-14.82,9.06-9.73,0-15-6.61-15-17.44V23h10.58V49.77c0,6.95,3.13,10.33,8.72,10.33,6.94,0,11.26-5.58,11.26-13.46V23h10.5Z"/><path d="M510.47,23v8.55h-14V67.89H486V32c0-4,.93-9,9.06-9Z"/><path d="M535,22.18c12.36,0,20.66,7.61,20.66,20.57a34.78,34.78,0,0,1-.34,5.08H524.18v2.45c0,6.18,4.41,10.25,10.92,10.25,5.34,0,9.23-2.63,10.42-6.44h10.41c-1.78,8.81-9.9,14.65-20.83,14.65-13.62,0-21.67-9.15-21.67-23.37C513.43,30.73,521.9,22.18,535,22.18Zm10.16,18.45V39.45c0-5.51-4.15-9.15-10.33-9.15-6.35,0-10.67,3.81-10.67,9.48v.85Z"/><path d="M9.78,18a15.83,15.83,0,0,1,13.4-10.8L9.78,18M27.24,7.09,9,21.75v3.94L32.07,7.09ZM20.88,26.37,17,29.46h3.84ZM9,36.57v3.27l4.06-3.27Zm8,0L9,43v3.89L21.83,36.57Zm8.78,0L9,50.11V54L30.62,36.58ZM20.88,54.7,9.13,64.17a15.45,15.45,0,0,0,.78,3.27l11-8.85Zm0,7.45v-.37l-9.92,8a16.25,16.25,0,0,0,1.73,2.51l9.25-7.47a3.88,3.88,0,0,1-1.06-2.67m3.92,3.92-.43,0-9.94,8A15.5,15.5,0,0,0,17,75.88l12.17-9.81ZM49.29,53,37.43,62.59v3.47h-4.3L19.52,77a15.81,15.81,0,0,0,3.79.84l26-21Zm0,7.08L27.17,78H32L49.29,64ZM37.43,36.58H34.57L9,57.2v3.89l11.88-9.58V48.45h3.79L37.43,38.16v3.19l-8.81,7.1h4.83l4-3.21v7.09l4.81-3.88h3.94l-8.75,7.06V59.4L49.3,49.84V48.45H65.85v13.7a3.93,3.93,0,0,1-3.92,3.92H49.3v1.11L36,78h4.83l8.52-6.86v3.18L44.73,78h17.2a15.81,15.81,0,0,0,15.8-15.8V36.58H49.32V19H61.93a3.93,3.93,0,0,1,3.92,3.92v6.59H77.73V22.88A15.81,15.81,0,0,0,61.93,7.09H36L9,28.88v.58h4.1l7.78-6.28v-.3A3.93,3.93,0,0,1,24.8,19h1.31L37.43,9.84V13L30.06,19h4.83l2.54-2.05Z"/></svg>