<svg xmlns="http://www.w3.org/2000/svg" xmlns:xlink="http://www.w3.org/1999/xlink" id="Ebene_1" x="0px" y="0px" viewBox="0 0 1417.32 1417.32" style="enable-background:new 0 0 1417.32 1417.32;" xml:space="preserve">
  <style type="text/css">
    .st0{fill:#FFFFFF;}
  </style>
  <g>
    <g>
      <path class="st0" d="M52.57,231.56L314.38,20.42C191.55,32.95,89.87,117.8,52.57,231.56z"/>
      <path class="st0" d="M393.57,18.82L38.1,305.5c-0.52,7.28-0.87,14.61-0.87,22.01v54.79L487.93,18.82H393.57z"/>
      <path class="st0" d="M269.41,327.52c0-42.08,34.43-76.5,76.5-76.5h25.68L592.79,72.63v-53.8h-27.65L37.22,444.57v11.57h80.01    l152.18-122.72V327.52z"/>
      <polygon class="st0" points="269.41,395.68 194.45,456.14 269.41,456.14   "/>
      <polygon class="st0" points="543.17,251.01 592.79,211 592.79,134.89 448.8,251.01   "/>
      <polygon class="st0" points="37.22,595.07 37.22,659.04 116.53,595.08   "/>
      <polygon class="st0" points="193.73,595.09 37.22,721.31 37.22,797.41 288.07,595.11   "/>
      <polygon class="st0" points="365.27,595.12 37.22,859.67 37.22,935.78 459.61,595.13   "/>
      <polygon class="st0" points="269.41,827.19 343.44,827.19 592.79,626.1 592.79,595.15 536.81,595.14 37.22,998.04 37.22,1074.14     269.41,886.89   "/>
      <path class="st0" d="M269.41,949.15L39.83,1134.3c2.83,22.08,7.96,43.45,15.22,63.82l214.36-172.87V949.15z"/>
      <polygon class="st0" points="515.02,827.18 592.79,764.47 592.79,688.36 420.65,827.19   "/>
      <polygon class="st0" points="592.79,902.83 686.6,827.18 592.79,827.18   "/>
      <path class="st0" d="M269.41,1094.84v-7.32L75.65,1243.79c9.64,17.43,20.92,33.82,33.62,48.99l180.85-145.85    C277.33,1133.24,269.41,1114.94,269.41,1094.84z"/>
      <polygon class="st0" points="592.79,1041.2 824.6,854.25 824.6,827.18 763.81,827.18 592.79,965.1   "/>
      <path class="st0" d="M345.92,1171.34c-2.8,0-5.56-0.17-8.28-0.47L143.4,1327.52c15.46,13.47,32.25,25.42,50.17,35.64l237.83-191.8    L345.92,1171.34z"/>
      <path class="st0" d="M824.6,916.52l-231.81,186.95v67.9l-84.18-0.01l-265.83,214.39c23.52,8.36,48.33,13.96,74.06,16.37    l507.77-409.5L824.6,916.52z"/>
      <polygon class="st0" points="824.6,1054.88 392.29,1403.53 486.65,1403.53 824.61,1130.98   "/>
      <polygon class="st0" points="824.61,1193.24 563.86,1403.53 658.23,1403.53 824.61,1269.34   "/>
      <polygon class="st0" points="824.61,1331.61 735.43,1403.53 824.61,1403.53   "/>
    </g>
    <path class="st0" d="M824.61,1171.34v232.19h246.89c170.2,0,308.69-138.48,308.69-308.69V595.2l-555.19-0.04V251.01h246.51   c42.08,0,76.51,34.43,76.51,76.5v128.67h232.18V327.51c0-170.21-138.48-308.69-308.69-308.69H592.8v808.37h555.21v267.64   c0,42.08-34.43,76.5-76.51,76.5H824.61z"/>
  </g>
</svg>
