<?xml version="1.0" encoding="UTF-8"?>
<!DOCTYPE svg PUBLIC "-//W3C//DTD SVG 1.1//EN" "http://www.w3.org/Graphics/SVG/1.1/DTD/svg11.dtd">
<!-- Creator: CorelDRAW 2021 (64-Bit) -->
<svg xmlns="http://www.w3.org/2000/svg" xml:space="preserve" width="0.396634in" height="0.333717in" version="1.1" style="shape-rendering:geometricPrecision; text-rendering:geometricPrecision; image-rendering:optimizeQuality; fill-rule:evenodd; clip-rule:evenodd"
viewBox="0 0 139.92 117.72"
 xmlns:xlink="http://www.w3.org/1999/xlink"
 xmlns:xodm="http://www.corel.com/coreldraw/odm/2003">
 <defs>
  <style type="text/css">
   <![CDATA[
    .fil0 {fill:black;fill-rule:nonzero}
   ]]>
  </style>
 </defs>
 <g id="Layer_x0020_1">
  <metadata id="CorelCorpID_0Corel-Layer"/>
  <g id="_2860763415440">
   <path class="fil0" d="M13.94 2.9c-6.08,0 -11.03,4.95 -11.03,11.04l0 89.86c0,6.08 4.95,11.04 11.03,11.04l112.04 0c6.08,0 11.04,-4.95 11.04,-11.04l0 -89.86c0,-6.08 -4.95,-11.04 -11.04,-11.04l-112.04 0zm112.04 114.83l-112.04 0c-7.68,0 -13.94,-6.25 -13.94,-13.93l0 -89.86c0,-7.68 6.26,-13.93 13.94,-13.93l112.04 0c7.69,0 13.94,6.25 13.94,13.93l0 89.86c0,7.69 -6.25,13.93 -13.94,13.93z"/>
   <polygon class="fil0" points="109.28,97.98 24.78,97.98 24.78,96.14 109.28,96.14 "/>
   <path class="fil0" d="M67.08 96.15l29.15 0 0 -17.91 5.16 0 -19.74 -19.29 -19.74 19.29 5.13 0 0.04 17.91zm30.99 1.83l-32.82 0 -0.02 -17.91 -7.81 0 24.24 -23.68 24.24 23.68 -7.82 0 0 17.91z"/>
   <polygon class="fil0" points="78,85.16 85.33,85.16 85.33,96.16 78,96.16 "/>
   <polygon class="fil0" points="45.01,96.69 43.18,96.69 43.18,72.32 45.01,72.32 "/>
   <path class="fil0" d="M44.1 34.76c-10.11,0 -18.33,8.22 -18.33,18.33 0,10.1 8.22,18.32 18.33,18.32 10.11,0 18.33,-8.22 18.33,-18.32 0,-10.11 -8.22,-18.33 -18.33,-18.33zm0 38.48c-11.12,0 -20.16,-9.05 -20.16,-20.16 0,-11.12 9.04,-20.16 20.16,-20.16 11.12,0 20.16,9.04 20.16,20.16 0,11.11 -9.04,20.16 -20.16,20.16z"/>
   <path class="fil0" d="M94.58 19.38c-0.34,0 -0.69,0.03 -1.11,0.07 -4.28,0.51 -7.79,3.89 -8.53,8.22l-0.11 0.59 -0.61 0.27c-2.64,0.57 -4.39,2.78 -4.39,5.42l0.01 0.22c0.2,3.03 2.55,5.29 5.37,5.29l27.69 0c2.81,0 5.1,-2.34 5.1,-5.23 0,-2.72 -2.15,-4.7 -5.1,-4.7l-0.88 0 -0.04 -0.88c-0.08,-2.18 -0.93,-3.51 -2.67,-4.14 -1.75,-0.63 -3.22,-0.29 -4.65,1.12l-0.84 0.83 -0.59 -1.03c-1.85,-3.19 -3.91,-6.05 -8.66,-6.05zm18.33 21.92l-27.69 0c-3.79,0 -6.95,-3.02 -7.18,-6.86 -0.02,-0.24 -0.03,-0.36 -0.03,-0.48 0,-3.33 2.12,-6.16 5.22,-7.06 1.11,-4.94 5.14,-8.68 10.03,-9.25 0.49,-0.06 0.92,-0.09 1.33,-0.09 5.19,0 7.78,2.96 9.68,6.02 1.71,-1.26 3.66,-1.53 5.7,-0.77 1.55,0.57 3.4,1.89 3.8,4.94 3.52,0.37 6.08,3.04 6.08,6.49 0,3.9 -3.1,7.07 -6.93,7.07z"/>
  </g>
 </g>
</svg>
