<?xml version="1.0" encoding="UTF-8"?>
<!DOCTYPE svg PUBLIC "-//W3C//DTD SVG 1.1//EN" "http://www.w3.org/Graphics/SVG/1.1/DTD/svg11.dtd">
<!-- Creator: CorelDRAW 2021 (64-Bit) -->
<svg xmlns="http://www.w3.org/2000/svg" xml:space="preserve" width="0.429031in" height="0.297969in" version="1.1" style="shape-rendering:geometricPrecision; text-rendering:geometricPrecision; image-rendering:optimizeQuality; fill-rule:evenodd; clip-rule:evenodd"
viewBox="0 0 6.22 4.32"
 xmlns:xlink="http://www.w3.org/1999/xlink"
 xmlns:xodm="http://www.corel.com/coreldraw/odm/2003">
 <defs>
  <style type="text/css">
   <![CDATA[
    .fil2 {fill:black}
    .fil0 {fill:#FEFEFE;fill-rule:nonzero}
    .fil1 {fill:black;fill-rule:nonzero}
   ]]>
  </style>
 </defs>
 <g id="Layer_x0020_1">
  <metadata id="CorelCorpID_0Corel-Layer"/>
  <g id="_2861717386432">
   <path class="fil0" d="M5.55 1.46c0.04,0 0.08,0 0.12,0 0.03,0 0.07,0 0.1,0.01 0.04,0 0.09,0.01 0.13,0.02 0.04,0.01 0.07,0.02 0.11,0.04 0.04,0.02 0.07,0.05 0.09,0.08 0.02,0.04 0.04,0.08 0.04,0.12 0.01,0.03 0.01,0.07 0.01,0.1 0,0.04 0.01,0.08 0.01,0.12 0,0.05 0,0.1 0,0.14 0,0.04 0,0.08 0,0.12 -0,0.03 -0,0.06 -0,0.09 -0,0.04 -0,0.08 -0,0.11 -0,0.03 -0,0.06 -0.01,0.09 -0,0.05 -0.01,0.1 -0.02,0.14 -0.01,0.05 -0.04,0.09 -0.08,0.13 -0.02,0.02 -0.05,0.04 -0.08,0.05 -0.04,0.01 -0.07,0.02 -0.11,0.03 -0.04,0 -0.07,0.01 -0.11,0.01 -0.03,0 -0.06,0 -0.09,0 -0.03,0 -0.06,0 -0.09,0 -0.06,0 -0.12,0 -0.18,0 -0.04,-0 -0.08,-0 -0.12,-0 -0.03,-0 -0.07,-0 -0.1,-0.01 -0.05,-0 -0.1,-0.01 -0.15,-0.02 -0.03,-0.01 -0.07,-0.02 -0.1,-0.04 -0.04,-0.02 -0.07,-0.06 -0.1,-0.1 -0.02,-0.04 -0.03,-0.08 -0.04,-0.12 -0.01,-0.04 -0.01,-0.07 -0.01,-0.11 -0,-0.04 -0,-0.07 -0.01,-0.11 -0,-0.03 -0,-0.06 -0,-0.08 -0,-0.06 -0,-0.12 -0,-0.17 0,-0.03 0,-0.06 0,-0.09 0,-0.03 0,-0.06 0,-0.09 0,-0.04 0,-0.07 0.01,-0.11 0,-0.04 0.01,-0.08 0.02,-0.12 0.01,-0.04 0.03,-0.08 0.05,-0.11 0.03,-0.04 0.07,-0.06 0.12,-0.08 0.04,-0.01 0.08,-0.02 0.12,-0.03 0.04,-0 0.07,-0.01 0.11,-0.01 0.03,-0 0.07,-0 0.1,-0 0.05,-0 0.11,-0 0.16,-0 0.03,0 0.06,-0 0.09,0z"/>
   <path class="fil1" d="M5.42 1.51c-0.04,0 -0.08,0 -0.12,0 -0.03,0 -0.07,0 -0.1,0 -0.04,0 -0.07,0 -0.11,0.01 -0.04,0.01 -0.08,0.01 -0.11,0.02 -0.04,0.01 -0.07,0.03 -0.09,0.06 -0.02,0.02 -0.03,0.05 -0.04,0.09 -0.01,0.04 -0.02,0.08 -0.02,0.11 -0,0.03 -0,0.07 -0.01,0.1 -0,0.04 -0,0.07 -0,0.1 -0,0.03 -0,0.06 -0,0.09 -0,0.06 -0,0.11 0,0.17l0 0.08c0,0.03 0,0.07 0.01,0.1 0,0.03 0,0.07 0.01,0.1 0.01,0.04 0.02,0.08 0.03,0.11 0.02,0.03 0.04,0.06 0.07,0.08 0.02,0.01 0.05,0.02 0.08,0.03 0.05,0.01 0.09,0.01 0.14,0.02 0.03,0 0.07,0 0.1,0.01 0.04,0 0.08,0 0.12,0 0.06,0 0.12,0 0.18,-0l0.19 -0.01c0.04,-0 0.07,-0.01 0.11,-0.01 0.04,-0.01 0.07,-0.01 0.1,-0.02 0.03,-0.01 0.05,-0.02 0.07,-0.04 0.03,-0.02 0.05,-0.06 0.06,-0.1 0.01,-0.04 0.02,-0.09 0.02,-0.13 0,-0.03 0,-0.06 0.01,-0.08 0,-0.04 0,-0.07 0,-0.11 0,-0.03 0,-0.06 0,-0.09 0,-0.04 0,-0.08 -0,-0.12 -0,-0.05 -0,-0.1 -0,-0.14 -0,-0.04 -0,-0.08 -0.01,-0.12 -0,-0.03 -0.01,-0.06 -0.01,-0.1 -0.01,-0.04 -0.02,-0.08 -0.04,-0.1 -0.02,-0.03 -0.04,-0.05 -0.07,-0.06 -0.03,-0.01 -0.05,-0.02 -0.09,-0.03 -0.04,-0.01 -0.08,-0.01 -0.12,-0.01 -0.03,-0 -0.07,-0 -0.1,-0.01 -0.04,-0 -0.08,-0 -0.12,-0 -0.02,-0 -0.04,-0 -0.06,-0l-0.03 0c-0.01,-0 -0.02,-0 -0.04,-0zm0.05 1.41c-0.03,0 -0.06,-0 -0.09,-0 -0.04,-0 -0.08,-0 -0.12,-0 -0.04,-0 -0.07,-0 -0.1,-0.01 -0.05,-0 -0.1,-0.01 -0.16,-0.02 -0.04,-0.01 -0.08,-0.02 -0.11,-0.04 -0.05,-0.03 -0.09,-0.07 -0.12,-0.12 -0.02,-0.04 -0.03,-0.08 -0.04,-0.14 -0.01,-0.04 -0.01,-0.07 -0.01,-0.11 -0,-0.04 -0,-0.07 -0.01,-0.11l-0 -0.08c-0,-0.06 -0,-0.12 -0,-0.18 0,-0.03 0,-0.06 0,-0.09 0,-0.03 0,-0.06 0,-0.09 0,-0.04 0,-0.08 0.01,-0.11 0,-0.04 0.01,-0.09 0.02,-0.13 0.01,-0.05 0.03,-0.09 0.06,-0.13 0.03,-0.04 0.08,-0.08 0.14,-0.1 0.04,-0.01 0.08,-0.02 0.13,-0.03 0.04,-0 0.08,-0.01 0.11,-0.01 0.04,-0 0.07,-0 0.1,-0.01 0.06,-0 0.11,-0 0.17,-0l0.03 0c0.02,0 0.04,0 0.06,0 0.04,0 0.08,0 0.13,0 0.03,0 0.07,0 0.1,0.01 0.04,0 0.09,0.01 0.14,0.02 0.05,0.01 0.09,0.02 0.12,0.04 0.04,0.02 0.08,0.06 0.11,0.1 0.02,0.04 0.04,0.08 0.05,0.14 0.01,0.04 0.01,0.07 0.01,0.11 0,0.04 0.01,0.08 0.01,0.12 0,0.05 0,0.1 0,0.15 0,0.04 0,0.08 0,0.12 -0,0.03 -0,0.06 -0,0.09 -0,0.04 -0,0.08 -0,0.11 -0,0.03 -0,0.06 -0.01,0.09 -0,0.05 -0.01,0.1 -0.03,0.15 -0.02,0.06 -0.05,0.11 -0.09,0.15 -0.03,0.03 -0.06,0.05 -0.1,0.06 -0.04,0.01 -0.08,0.02 -0.13,0.03 -0.04,0.01 -0.08,0.01 -0.12,0.01l-0.09 0.01c-0.02,0 -0.05,0 -0.07,0l-0.02 0c-0.03,0 -0.06,0 -0.09,0z"/>
   <path class="fil0" d="M4.99 1.22c0.06,0 0.11,0 0.17,0.01 0.04,0 0.09,0 0.13,0.01 0.06,0 0.12,0.01 0.18,0.02 0.05,0.01 0.1,0.03 0.15,0.05 0.05,0.03 0.09,0.06 0.12,0.11 0.03,0.05 0.05,0.1 0.06,0.16 0.01,0.04 0.01,0.09 0.02,0.14 0,0.05 0.01,0.11 0.01,0.16 0,0.06 0,0.13 0.01,0.19 0,0.05 0,0.1 0,0.16 -0,0.04 -0,0.08 -0,0.12 -0,0.05 -0,0.1 -0.01,0.15 -0,0.04 -0,0.08 -0.01,0.12 -0.01,0.06 -0.01,0.13 -0.03,0.19 -0.02,0.07 -0.05,0.12 -0.1,0.17 -0.03,0.03 -0.07,0.05 -0.11,0.07 -0.05,0.02 -0.1,0.03 -0.15,0.04 -0.05,0.01 -0.1,0.01 -0.15,0.01 -0.04,0 -0.08,0 -0.13,0.01 -0.04,0 -0.08,0 -0.12,0 -0.08,0 -0.16,0 -0.24,0 -0.05,-0 -0.1,-0 -0.16,-0 -0.05,-0 -0.09,-0 -0.14,-0.01 -0.07,-0 -0.13,-0.01 -0.2,-0.02 -0.04,-0.01 -0.09,-0.02 -0.13,-0.05 -0.06,-0.03 -0.1,-0.08 -0.13,-0.14 -0.03,-0.05 -0.04,-0.11 -0.05,-0.16 -0.01,-0.05 -0.01,-0.09 -0.01,-0.14 -0,-0.05 -0.01,-0.09 -0.01,-0.14 -0,-0.04 -0,-0.07 -0,-0.11 -0,-0.08 -0,-0.15 -0,-0.23 0,-0.04 0,-0.08 0,-0.12 0,-0.04 0,-0.08 0.01,-0.12 0,-0.05 0.01,-0.1 0.01,-0.15 0,-0.06 0.01,-0.11 0.03,-0.17 0.01,-0.05 0.04,-0.1 0.07,-0.15 0.04,-0.05 0.09,-0.09 0.15,-0.11 0.05,-0.02 0.11,-0.03 0.16,-0.04 0.05,-0.01 0.1,-0.01 0.15,-0.01 0.05,-0 0.09,-0 0.14,-0.01 0.07,-0 0.14,-0 0.22,-0 0.04,0 0.08,-0 0.12,0z"/>
   <path class="fil0" d="M4.83 1.42c-0.06,0 -0.11,0 -0.16,0l-0.13 0.01c-0.05,0 -0.09,0.01 -0.14,0.01 -0.05,0.01 -0.09,0.01 -0.12,0.03 -0.04,0.01 -0.06,0.03 -0.07,0.05 -0.01,0.02 -0.03,0.04 -0.03,0.08 -0.01,0.04 -0.02,0.09 -0.02,0.13 -0,0.04 -0.01,0.09 -0.01,0.13 -0,0.05 -0,0.09 -0.01,0.13l-0 0.12c-0,0.07 -0,0.15 0,0.22l0 0.11c0,0.05 0,0.09 0.01,0.14 0,0.04 0.01,0.08 0.01,0.12 0.01,0.05 0.02,0.08 0.03,0.11 0.01,0.02 0.03,0.04 0.05,0.05 0.02,0.01 0.04,0.02 0.08,0.03 0.06,0.01 0.11,0.02 0.17,0.02 0.04,0 0.09,0.01 0.13,0.01 0.06,0 0.11,0 0.15,0 0.08,0 0.16,0 0.23,-0l0.12 -0c0.04,-0 0.08,-0 0.12,-0.01 0.05,-0 0.09,-0.01 0.14,-0.01 0.04,-0.01 0.08,-0.01 0.11,-0.02 0.02,-0.01 0.04,-0.02 0.05,-0.03 0.01,-0.01 0.03,-0.03 0.04,-0.08 0.01,-0.05 0.02,-0.1 0.02,-0.15 0,-0.04 0.01,-0.07 0.01,-0.11l0.01 -0.26c0,-0.05 0,-0.1 -0,-0.15 -0,-0.06 -0,-0.12 -0.01,-0.19 -0,-0.05 -0.01,-0.1 -0.01,-0.15 -0,-0.04 -0.01,-0.08 -0.01,-0.11 -0.01,-0.04 -0.02,-0.07 -0.03,-0.1 -0.01,-0.02 -0.03,-0.03 -0.05,-0.04 -0.02,-0.01 -0.05,-0.02 -0.09,-0.03 -0.05,-0.01 -0.1,-0.01 -0.15,-0.02 -0.04,-0 -0.09,-0.01 -0.13,-0.01 -0.05,-0 -0.11,-0 -0.16,-0l-0.11 -0c-0.02,-0 -0.03,-0 -0.05,-0zm0.06 1.88c-0.04,0 -0.08,-0 -0.12,-0 -0.05,-0 -0.1,-0 -0.14,-0 -0.07,-0 -0.11,-0.01 -0.16,-0.01 -0.08,-0.01 -0.15,-0.01 -0.23,-0.03 -0.07,-0.01 -0.13,-0.04 -0.18,-0.07 -0.09,-0.05 -0.16,-0.12 -0.2,-0.22 -0.03,-0.06 -0.05,-0.13 -0.07,-0.22 -0.01,-0.05 -0.01,-0.1 -0.02,-0.16 -0,-0.05 -0.01,-0.1 -0.01,-0.15l-0 -0.11c-0,-0.08 -0,-0.16 -0,-0.24 0,-0.04 0,-0.09 0,-0.13 0,-0.04 0,-0.08 0.01,-0.12 0,-0.06 0.01,-0.11 0.01,-0.15 0.01,-0.07 0.01,-0.13 0.03,-0.2 0.02,-0.08 0.06,-0.15 0.1,-0.21 0.06,-0.08 0.14,-0.13 0.24,-0.17 0.06,-0.02 0.13,-0.04 0.21,-0.05 0.05,-0.01 0.11,-0.01 0.16,-0.01l0.14 -0.01c0.07,-0 0.15,-0 0.23,-0l0.12 0c0.06,0 0.11,0 0.17,0.01 0.05,0 0.09,0 0.14,0.01 0.07,0 0.13,0.01 0.2,0.02 0.08,0.02 0.14,0.04 0.2,0.07 0.08,0.04 0.14,0.1 0.19,0.18 0.04,0.06 0.07,0.14 0.08,0.22 0.01,0.05 0.02,0.1 0.02,0.16 0,0.06 0.01,0.11 0.01,0.17 0,0.07 0,0.13 0.01,0.2 0,0.05 0,0.11 0,0.16 -0,0.04 -0,0.08 -0,0.13 -0,0.05 -0,0.1 -0.01,0.15 -0,0.04 -0,0.08 -0.01,0.12 -0.01,0.07 -0.01,0.15 -0.04,0.23 -0.03,0.11 -0.08,0.19 -0.16,0.26 -0.05,0.04 -0.11,0.08 -0.17,0.1 -0.06,0.02 -0.12,0.04 -0.19,0.05 -0.05,0.01 -0.11,0.01 -0.16,0.01 -0.04,0 -0.09,0 -0.13,0.01l-0.13 0c-0.04,0 -0.08,0 -0.13,0z"/>
   <path class="fil0" d="M4.99 1.22c0.06,0 0.11,0 0.17,0.01 0.04,0 0.09,0 0.13,0.01 0.06,0 0.12,0.01 0.18,0.02 0.05,0.01 0.1,0.03 0.15,0.05 0.05,0.03 0.09,0.06 0.12,0.11 0.03,0.05 0.05,0.1 0.06,0.16 0.01,0.04 0.01,0.09 0.02,0.14 0,0.05 0.01,0.11 0.01,0.16 0,0.06 0,0.13 0.01,0.19 0,0.05 0,0.1 0,0.16 -0,0.04 -0,0.08 -0,0.12 -0,0.05 -0,0.1 -0.01,0.15 -0,0.04 -0,0.08 -0.01,0.12 -0.01,0.06 -0.01,0.13 -0.03,0.19 -0.02,0.07 -0.05,0.12 -0.1,0.17 -0.03,0.03 -0.07,0.05 -0.11,0.07 -0.05,0.02 -0.1,0.03 -0.15,0.04 -0.05,0.01 -0.1,0.01 -0.15,0.01 -0.04,0 -0.08,0 -0.13,0.01 -0.04,0 -0.08,0 -0.12,0 -0.08,0 -0.16,0 -0.24,0 -0.05,-0 -0.1,-0 -0.16,-0 -0.05,-0 -0.09,-0 -0.14,-0.01 -0.07,-0 -0.13,-0.01 -0.2,-0.02 -0.04,-0.01 -0.09,-0.02 -0.13,-0.05 -0.06,-0.03 -0.1,-0.08 -0.13,-0.14 -0.03,-0.05 -0.04,-0.11 -0.05,-0.16 -0.01,-0.05 -0.01,-0.09 -0.01,-0.14 -0,-0.05 -0.01,-0.09 -0.01,-0.14 -0,-0.04 -0,-0.07 -0,-0.11 -0,-0.08 -0,-0.15 -0,-0.23 0,-0.04 0,-0.08 0,-0.12 0,-0.04 0,-0.08 0.01,-0.12 0,-0.05 0.01,-0.1 0.01,-0.15 0,-0.06 0.01,-0.11 0.03,-0.17 0.01,-0.05 0.04,-0.1 0.07,-0.15 0.04,-0.05 0.09,-0.09 0.15,-0.11 0.05,-0.02 0.11,-0.03 0.16,-0.04 0.05,-0.01 0.1,-0.01 0.15,-0.01 0.05,-0 0.09,-0 0.14,-0.01 0.07,-0 0.14,-0 0.22,-0 0.04,0 0.08,-0 0.12,0z"/>
   <path class="fil1" d="M4.83 1.28c-0.06,0 -0.11,0 -0.17,0 -0.05,0 -0.09,0 -0.14,0.01 -0.05,0 -0.1,0.01 -0.15,0.01 -0.06,0.01 -0.11,0.02 -0.15,0.03 -0.06,0.02 -0.1,0.05 -0.13,0.09 -0.03,0.03 -0.05,0.07 -0.06,0.13 -0.01,0.05 -0.02,0.11 -0.02,0.16 -0,0.04 -0.01,0.09 -0.01,0.13 -0,0.05 -0,0.09 -0.01,0.13 -0,0.04 -0,0.08 -0,0.12 -0,0.08 -0,0.15 0,0.23l0 0.11c0,0.05 0,0.09 0.01,0.14 0,0.05 0.01,0.09 0.01,0.14 0.01,0.06 0.02,0.11 0.04,0.15 0.02,0.05 0.06,0.09 0.11,0.11 0.03,0.02 0.07,0.03 0.11,0.04 0.06,0.01 0.12,0.02 0.19,0.02 0.05,0 0.09,0.01 0.14,0.01l0.02 0c0.05,0 0.09,0 0.14,0 0.08,0 0.16,0 0.24,-0 0.04,-0 0.08,-0 0.12,-0 0.04,-0 0.08,-0 0.13,-0.01 0.05,-0 0.1,-0.01 0.15,-0.01 0.05,-0.01 0.1,-0.02 0.14,-0.03 0.04,-0.01 0.07,-0.03 0.09,-0.06 0.04,-0.04 0.07,-0.08 0.08,-0.14 0.02,-0.06 0.02,-0.12 0.03,-0.18 0,-0.04 0.01,-0.08 0.01,-0.11 0,-0.05 0.01,-0.1 0.01,-0.15 0,-0.04 0,-0.08 0,-0.12 0,-0.05 0,-0.1 -0,-0.15 -0,-0.06 -0,-0.13 -0.01,-0.19 -0,-0.05 -0.01,-0.11 -0.01,-0.16 -0,-0.04 -0.01,-0.09 -0.02,-0.13 -0.01,-0.06 -0.03,-0.1 -0.05,-0.14 -0.02,-0.04 -0.06,-0.07 -0.1,-0.09 -0.04,-0.02 -0.08,-0.03 -0.13,-0.04 -0.06,-0.01 -0.12,-0.02 -0.17,-0.02 -0.04,-0 -0.09,-0.01 -0.13,-0.01 -0.05,-0 -0.11,-0 -0.16,-0.01l0 0c-0.03,-0 -0.05,-0 -0.08,-0l-0.03 0c-0.02,-0 -0.03,-0 -0.05,-0zm0.06 1.88c-0.04,0 -0.08,-0 -0.12,-0 -0.05,-0 -0.09,-0 -0.14,-0l-0.02 -0c-0.05,-0 -0.09,-0 -0.14,-0.01 -0.07,-0 -0.14,-0.01 -0.2,-0.03 -0.06,-0.01 -0.1,-0.03 -0.14,-0.05 -0.07,-0.04 -0.12,-0.09 -0.15,-0.16 -0.03,-0.05 -0.04,-0.11 -0.06,-0.18 -0.01,-0.05 -0.01,-0.1 -0.02,-0.15 -0,-0.05 -0.01,-0.1 -0.01,-0.14l-0 -0.11c-0,-0.08 -0,-0.16 -0,-0.24 0,-0.04 0,-0.08 0,-0.12 0,-0.04 0,-0.08 0.01,-0.12 0,-0.06 0.01,-0.1 0.01,-0.15 0,-0.05 0.01,-0.11 0.03,-0.17 0.02,-0.07 0.04,-0.12 0.08,-0.17 0.04,-0.06 0.1,-0.1 0.18,-0.12 0.05,-0.02 0.11,-0.03 0.17,-0.04 0.05,-0.01 0.1,-0.01 0.15,-0.01 0.05,-0 0.09,-0.01 0.14,-0.01 0.07,-0 0.15,-0 0.22,-0l0.03 0c0.03,0 0.06,-0 0.08,0 0.06,0 0.11,0 0.17,0 0.04,0 0.09,0 0.13,0.01 0.05,0 0.12,0.01 0.18,0.02 0.06,0.01 0.12,0.03 0.16,0.06 0.06,0.03 0.1,0.08 0.14,0.13 0.03,0.05 0.05,0.11 0.07,0.18 0.01,0.05 0.01,0.09 0.02,0.14 0,0.05 0.01,0.11 0.01,0.16 0,0.06 0,0.13 0.01,0.19 0,0.05 0,0.1 0,0.16 -0,0.04 -0,0.08 -0,0.12 -0,0.05 -0,0.1 -0.01,0.15 -0,0.04 -0,0.08 -0.01,0.12 -0.01,0.06 -0.01,0.13 -0.03,0.2 -0.02,0.08 -0.06,0.15 -0.12,0.19 -0.04,0.03 -0.08,0.06 -0.13,0.08 -0.05,0.02 -0.1,0.03 -0.16,0.04 -0.05,0.01 -0.1,0.01 -0.15,0.01 -0.04,0 -0.08,0 -0.13,0.01 -0.04,0 -0.08,0 -0.12,0 -0.04,0 -0.08,0 -0.12,0z"/>
   <path class="fil0" d="M4.35 0.99c0.07,0 0.14,0 0.21,0.01 0.06,0 0.11,0.01 0.17,0.01 0.07,0 0.15,0.01 0.22,0.03 0.06,0.01 0.12,0.03 0.18,0.06 0.06,0.03 0.11,0.08 0.14,0.14 0.04,0.06 0.06,0.13 0.07,0.2 0.01,0.06 0.02,0.11 0.02,0.17 0.01,0.07 0.01,0.13 0.01,0.2 0,0.08 0.01,0.16 0.01,0.24 0,0.06 0,0.13 0,0.19 -0,0.05 -0,0.1 -0,0.15 -0,0.06 -0,0.13 -0.01,0.19 -0,0.05 -0.01,0.1 -0.01,0.14 -0.01,0.08 -0.02,0.16 -0.04,0.24 -0.02,0.08 -0.06,0.15 -0.13,0.21 -0.04,0.04 -0.09,0.06 -0.14,0.08 -0.06,0.02 -0.12,0.04 -0.19,0.04 -0.06,0.01 -0.12,0.01 -0.19,0.02 -0.05,0 -0.11,0.01 -0.16,0.01 -0.05,0 -0.1,0 -0.15,0 -0.1,0 -0.2,0 -0.3,0 -0.07,-0 -0.13,-0 -0.2,-0.01 -0.06,-0 -0.11,-0.01 -0.17,-0.01 -0.08,-0.01 -0.16,-0.01 -0.24,-0.03 -0.06,-0.01 -0.11,-0.03 -0.16,-0.06 -0.07,-0.04 -0.12,-0.1 -0.16,-0.17 -0.03,-0.07 -0.05,-0.13 -0.06,-0.21 -0.01,-0.06 -0.01,-0.12 -0.02,-0.18 -0,-0.06 -0.01,-0.12 -0.01,-0.18 -0,-0.05 -0,-0.09 -0,-0.14 -0,-0.1 -0,-0.19 -0,-0.29 0,-0.05 0,-0.1 0,-0.15 0,-0.05 0,-0.1 0.01,-0.15 0,-0.06 0.01,-0.12 0.01,-0.19 0.01,-0.07 0.01,-0.14 0.03,-0.21 0.02,-0.07 0.04,-0.13 0.09,-0.18 0.05,-0.06 0.12,-0.11 0.19,-0.13 0.07,-0.02 0.13,-0.04 0.2,-0.04 0.06,-0.01 0.12,-0.01 0.19,-0.01 0.06,-0 0.11,-0.01 0.17,-0.01 0.09,-0 0.18,-0.01 0.27,-0 0.05,0 0.1,-0 0.14,0z"/>
   <path class="fil0" d="M4.15 1.18c-0.07,0 -0.14,0 -0.2,0l-0.17 0.01c-0.06,0 -0.12,0.01 -0.17,0.01 -0.07,0.01 -0.12,0.02 -0.16,0.03 -0.05,0.02 -0.08,0.04 -0.11,0.07 -0.02,0.03 -0.04,0.06 -0.05,0.11 -0.02,0.06 -0.02,0.12 -0.03,0.17 -0,0.05 -0.01,0.1 -0.01,0.15 -0,0.07 -0.01,0.12 -0.01,0.17 -0,0.05 -0,0.1 -0,0.15 -0,0.09 -0,0.19 0,0.28l0 0.14c0,0.06 0.01,0.11 0.01,0.17 0,0.05 0.01,0.11 0.02,0.16 0.01,0.06 0.02,0.11 0.04,0.15 0.02,0.04 0.05,0.07 0.08,0.09 0.03,0.02 0.06,0.03 0.11,0.04 0.07,0.02 0.15,0.02 0.21,0.03 0.06,0 0.11,0.01 0.17,0.01 0.06,0 0.13,0.01 0.19,0.01 0.1,0 0.2,0 0.29,-0l0.15 -0.01c0.05,-0 0.1,-0 0.15,-0.01 0.06,-0 0.12,-0.01 0.17,-0.02 0.06,-0.01 0.1,-0.02 0.14,-0.03 0.03,-0.01 0.06,-0.03 0.08,-0.05 0.03,-0.03 0.05,-0.07 0.07,-0.12 0.02,-0.06 0.03,-0.13 0.03,-0.2 0,-0.05 0.01,-0.09 0.01,-0.14 0,-0.06 0.01,-0.12 0.01,-0.18 0,-0.05 0,-0.1 0,-0.15 0,-0.06 0,-0.13 -0,-0.19 -0,-0.08 -0,-0.16 -0.01,-0.24 -0,-0.06 -0.01,-0.13 -0.01,-0.19 -0,-0.05 -0.01,-0.1 -0.02,-0.15 -0.01,-0.06 -0.03,-0.1 -0.05,-0.14 -0.02,-0.03 -0.04,-0.05 -0.07,-0.07 -0.03,-0.02 -0.07,-0.03 -0.12,-0.04 -0.06,-0.01 -0.13,-0.02 -0.19,-0.02 -0.05,-0 -0.11,-0.01 -0.16,-0.01 -0.07,-0 -0.13,-0 -0.2,-0.01l-0.09 -0 -0.05 0c-0.02,-0 -0.04,-0 -0.06,-0zm0.07 2.35c-0.05,0 -0.1,-0 -0.15,-0 -0.07,-0 -0.14,-0 -0.2,-0.01 -0.06,-0 -0.12,-0.01 -0.18,-0.01 -0.08,-0.01 -0.18,-0.01 -0.27,-0.04 -0.08,-0.02 -0.15,-0.04 -0.21,-0.08 -0.1,-0.06 -0.18,-0.14 -0.24,-0.25 -0.04,-0.08 -0.06,-0.16 -0.08,-0.26 -0.01,-0.06 -0.02,-0.13 -0.02,-0.19 -0,-0.06 -0.01,-0.12 -0.01,-0.18l-0.01 -0.14c-0,-0.1 -0,-0.2 -0,-0.3 0,-0.05 0,-0.11 0,-0.16 0,-0.05 0,-0.1 0.01,-0.15 0,-0.08 0.01,-0.14 0.01,-0.19 0.01,-0.07 0.02,-0.15 0.04,-0.24 0.03,-0.1 0.07,-0.18 0.12,-0.25 0.07,-0.09 0.16,-0.15 0.28,-0.2 0.07,-0.03 0.15,-0.04 0.25,-0.05 0.07,-0.01 0.13,-0.01 0.2,-0.02l0.17 -0.01c0.09,-0 0.19,-0.01 0.28,-0l0.15 0c0.07,0 0.14,0 0.21,0.01 0.06,0 0.11,0.01 0.17,0.01 0.08,0.01 0.16,0.01 0.25,0.03 0.09,0.02 0.17,0.05 0.24,0.08 0.09,0.05 0.16,0.12 0.21,0.21 0.05,0.08 0.08,0.16 0.1,0.27 0.01,0.06 0.02,0.13 0.02,0.19 0.01,0.07 0.01,0.14 0.01,0.21 0,0.08 0.01,0.16 0.01,0.25 0,0.07 0,0.13 0,0.2 -0,0.05 -0,0.1 -0,0.16 -0,0.06 -0.01,0.13 -0.01,0.19 -0,0.05 -0.01,0.1 -0.01,0.15 -0.01,0.09 -0.02,0.18 -0.05,0.28 -0.04,0.13 -0.1,0.22 -0.18,0.3 -0.06,0.05 -0.12,0.09 -0.2,0.12 -0.07,0.03 -0.14,0.04 -0.23,0.06 -0.07,0.01 -0.13,0.01 -0.2,0.02 -0.05,0 -0.11,0.01 -0.16,0.01 -0.04,0 -0.09,0 -0.13,0 -0.07,0 -0.13,0 -0.18,0z"/>
   <path class="fil0" d="M4.35 0.99c0.07,0 0.14,0 0.21,0.01 0.06,0 0.11,0.01 0.17,0.01 0.07,0 0.15,0.01 0.22,0.03 0.06,0.01 0.12,0.03 0.18,0.06 0.06,0.03 0.11,0.08 0.14,0.14 0.04,0.06 0.06,0.13 0.07,0.2 0.01,0.06 0.02,0.11 0.02,0.17 0.01,0.07 0.01,0.13 0.01,0.2 0,0.08 0.01,0.16 0.01,0.24 0,0.06 0,0.13 0,0.19 -0,0.05 -0,0.1 -0,0.15 -0,0.06 -0,0.13 -0.01,0.19 -0,0.05 -0.01,0.1 -0.01,0.14 -0.01,0.08 -0.02,0.16 -0.04,0.24 -0.02,0.08 -0.06,0.15 -0.13,0.21 -0.04,0.04 -0.09,0.06 -0.14,0.08 -0.06,0.02 -0.12,0.04 -0.19,0.04 -0.06,0.01 -0.12,0.01 -0.19,0.02 -0.05,0 -0.11,0.01 -0.16,0.01 -0.05,0 -0.1,0 -0.15,0 -0.1,0 -0.2,0 -0.3,0 -0.07,-0 -0.13,-0 -0.2,-0.01 -0.06,-0 -0.11,-0.01 -0.17,-0.01 -0.08,-0.01 -0.16,-0.01 -0.24,-0.03 -0.06,-0.01 -0.11,-0.03 -0.16,-0.06 -0.07,-0.04 -0.12,-0.1 -0.16,-0.17 -0.03,-0.07 -0.05,-0.13 -0.06,-0.21 -0.01,-0.06 -0.01,-0.12 -0.02,-0.18 -0,-0.06 -0.01,-0.12 -0.01,-0.18 -0,-0.05 -0,-0.09 -0,-0.14 -0,-0.1 -0,-0.19 -0,-0.29 0,-0.05 0,-0.1 0,-0.15 0,-0.05 0,-0.1 0.01,-0.15 0,-0.06 0.01,-0.12 0.01,-0.19 0.01,-0.07 0.01,-0.14 0.03,-0.21 0.02,-0.07 0.04,-0.13 0.09,-0.18 0.05,-0.06 0.12,-0.11 0.19,-0.13 0.07,-0.02 0.13,-0.04 0.2,-0.04 0.06,-0.01 0.12,-0.01 0.19,-0.01 0.06,-0 0.11,-0.01 0.17,-0.01 0.09,-0 0.18,-0.01 0.27,-0 0.05,0 0.1,-0 0.14,0z"/>
   <path class="fil1" d="M4.15 1.04c-0.07,0 -0.14,0 -0.21,0 -0.06,0 -0.11,0.01 -0.17,0.01 -0.06,0 -0.12,0.01 -0.18,0.01 -0.08,0.01 -0.14,0.02 -0.19,0.04 -0.07,0.03 -0.13,0.06 -0.17,0.12 -0.03,0.04 -0.06,0.1 -0.08,0.16 -0.02,0.07 -0.03,0.14 -0.03,0.2 -0,0.05 -0.01,0.1 -0.01,0.16l-0 0.03c-0,0.05 -0,0.1 -0.01,0.15 -0,0.05 -0,0.1 -0,0.15 -0,0.1 -0,0.19 0,0.29l0 0.14c0,0.06 0.01,0.12 0.01,0.18 0,0.06 0.01,0.11 0.02,0.17 0.01,0.08 0.03,0.14 0.06,0.19 0.03,0.06 0.08,0.11 0.14,0.15 0.04,0.02 0.09,0.04 0.15,0.05 0.08,0.02 0.16,0.02 0.24,0.03 0.06,0 0.11,0.01 0.17,0.01 0.07,0 0.13,0.01 0.19,0.01 0.1,0 0.2,0 0.3,-0l0.03 -0c0.04,-0 0.08,-0 0.13,-0 0.05,-0 0.1,-0 0.16,-0.01 0.06,-0 0.12,-0.01 0.18,-0.02 0.07,-0.01 0.13,-0.02 0.18,-0.04 0.05,-0.02 0.09,-0.04 0.12,-0.07 0.05,-0.04 0.09,-0.11 0.11,-0.19 0.02,-0.07 0.03,-0.15 0.04,-0.23 0,-0.05 0.01,-0.1 0.01,-0.14 0,-0.06 0.01,-0.12 0.01,-0.19 0,-0.05 0,-0.1 0,-0.15 0,-0.06 0,-0.13 -0,-0.19 -0,-0.08 -0,-0.16 -0.01,-0.24 -0,-0.07 -0.01,-0.13 -0.01,-0.2 -0,-0.05 -0.01,-0.11 -0.02,-0.16 -0.01,-0.08 -0.04,-0.13 -0.07,-0.18 -0.03,-0.05 -0.07,-0.09 -0.12,-0.12 -0.05,-0.03 -0.1,-0.04 -0.17,-0.06 -0.07,-0.01 -0.15,-0.02 -0.21,-0.02 -0.06,-0 -0.11,-0.01 -0.17,-0.01 -0.07,-0 -0.14,-0.01 -0.21,-0.01 -0.03,-0 -0.06,-0 -0.1,-0l-0.05 0c-0.02,-0 -0.04,-0 -0.06,-0zm0.08 2.34c-0.05,0 -0.1,-0 -0.16,-0 -0.07,-0 -0.13,-0 -0.2,-0.01 -0.06,-0 -0.11,-0.01 -0.17,-0.01 -0.08,-0 -0.17,-0.01 -0.25,-0.03 -0.07,-0.02 -0.13,-0.04 -0.18,-0.07 -0.08,-0.04 -0.14,-0.11 -0.18,-0.19 -0.03,-0.06 -0.05,-0.13 -0.07,-0.22 -0.01,-0.06 -0.01,-0.12 -0.02,-0.18 -0,-0.06 -0.01,-0.12 -0.01,-0.18l-0 -0.14c-0,-0.1 -0,-0.19 -0,-0.29 0,-0.05 0,-0.1 0,-0.16 0,-0.05 0,-0.1 0.01,-0.15l0 -0.03c0,-0.05 0.01,-0.11 0.01,-0.16 0.01,-0.06 0.01,-0.14 0.03,-0.22 0.02,-0.08 0.05,-0.15 0.1,-0.2 0.05,-0.07 0.12,-0.12 0.22,-0.15 0.06,-0.02 0.13,-0.04 0.21,-0.05 0.06,-0.01 0.13,-0.01 0.19,-0.02 0.06,-0 0.12,-0.01 0.17,-0.01 0.09,-0 0.18,-0.01 0.27,-0l0.05 0c0.03,-0 0.06,-0 0.1,0l0 0c0.07,0 0.14,0 0.21,0.01 0.06,0 0.11,0.01 0.17,0.01 0.07,0 0.15,0.01 0.23,0.03 0.08,0.02 0.14,0.04 0.2,0.07 0.07,0.04 0.12,0.09 0.16,0.16 0.04,0.06 0.06,0.13 0.08,0.22 0.01,0.06 0.02,0.13 0.02,0.18 0.01,0.07 0.01,0.14 0.01,0.2 0,0.08 0.01,0.16 0.01,0.24 0,0.07 0,0.13 0,0.2 -0,0.05 -0,0.1 -0,0.15 -0,0.06 -0,0.13 -0.01,0.19 -0,0.05 -0.01,0.1 -0.01,0.15 -0.01,0.08 -0.02,0.16 -0.04,0.25 -0.03,0.1 -0.08,0.18 -0.14,0.24 -0.04,0.04 -0.1,0.07 -0.16,0.09 -0.06,0.02 -0.12,0.04 -0.2,0.05 -0.06,0.01 -0.13,0.01 -0.19,0.02 -0.05,0 -0.11,0.01 -0.16,0.01 -0.04,0 -0.09,0 -0.13,0l-0.03 0c-0.05,0 -0.1,0 -0.15,0z"/>
   <path class="fil0" d="M3.46 0.6c0.09,0 0.18,0 0.28,0.01 0.07,0 0.15,0.01 0.22,0.01 0.1,0.01 0.2,0.02 0.29,0.03 0.08,0.02 0.17,0.04 0.24,0.08 0.08,0.04 0.14,0.11 0.19,0.18 0.05,0.08 0.08,0.17 0.1,0.27 0.01,0.08 0.02,0.15 0.03,0.23 0.01,0.09 0.01,0.18 0.02,0.27 0,0.11 0.01,0.21 0.01,0.32 0,0.09 0,0.17 0,0.26 -0,0.07 -0,0.13 -0,0.2 -0,0.08 -0.01,0.17 -0.01,0.25 -0,0.06 -0.01,0.13 -0.01,0.19 -0.01,0.11 -0.02,0.21 -0.05,0.32 -0.03,0.11 -0.08,0.21 -0.17,0.28 -0.05,0.05 -0.12,0.08 -0.19,0.11 -0.08,0.03 -0.17,0.05 -0.25,0.06 -0.08,0.01 -0.17,0.02 -0.25,0.02 -0.07,0 -0.14,0.01 -0.21,0.01 -0.07,0 -0.14,0 -0.2,0.01 -0.13,0 -0.27,0 -0.4,0 -0.09,-0 -0.17,-0 -0.26,-0.01 -0.08,-0 -0.15,-0.01 -0.23,-0.01 -0.11,-0.01 -0.22,-0.02 -0.33,-0.04 -0.07,-0.02 -0.15,-0.04 -0.21,-0.08 -0.09,-0.05 -0.17,-0.13 -0.21,-0.22 -0.04,-0.09 -0.07,-0.18 -0.08,-0.27 -0.01,-0.08 -0.02,-0.16 -0.02,-0.23 -0.01,-0.08 -0.01,-0.16 -0.01,-0.24 -0,-0.06 -0,-0.12 -0.01,-0.19 -0,-0.13 -0,-0.26 -0,-0.39 0,-0.07 0,-0.14 0,-0.21 0,-0.07 0,-0.13 0.01,-0.2 0,-0.08 0.01,-0.16 0.02,-0.25 0.01,-0.09 0.02,-0.19 0.04,-0.28 0.02,-0.09 0.06,-0.17 0.12,-0.24 0.07,-0.09 0.15,-0.14 0.26,-0.18 0.09,-0.03 0.18,-0.05 0.27,-0.06 0.08,-0.01 0.17,-0.02 0.25,-0.02 0.08,-0 0.15,-0.01 0.23,-0.01 0.12,-0.01 0.24,-0.01 0.36,-0.01 0.06,0 0.13,-0 0.19,0z"/>
   <path class="fil0" d="M3.19 0.79c-0.09,0 -0.19,0 -0.28,0.01 -0.08,0 -0.15,0.01 -0.23,0.01 -0.08,0 -0.16,0.01 -0.24,0.02 -0.09,0.01 -0.16,0.03 -0.23,0.05 -0.07,0.03 -0.13,0.07 -0.17,0.12 -0.04,0.04 -0.06,0.1 -0.08,0.17 -0.02,0.08 -0.03,0.17 -0.04,0.24 -0.01,0.07 -0.01,0.15 -0.01,0.22 -0,0.09 -0.01,0.15 -0.01,0.22 -0,0.07 -0,0.13 -0,0.2 -0,0.13 -0,0.25 0,0.38l0.01 0.18c0,0.08 0.01,0.15 0.01,0.23 0.01,0.07 0.01,0.14 0.02,0.22 0.01,0.09 0.03,0.16 0.06,0.22 0.03,0.06 0.08,0.11 0.14,0.14 0.04,0.03 0.1,0.04 0.16,0.06 0.1,0.02 0.2,0.03 0.3,0.04 0.07,0 0.15,0.01 0.22,0.01 0.09,0 0.17,0.01 0.26,0.01 0.13,0 0.26,0 0.39,-0l0.05 -0c0.05,-0 0.1,-0 0.16,-0.01 0.07,-0 0.14,-0.01 0.21,-0.01 0.08,-0 0.16,-0.01 0.24,-0.02 0.08,-0.01 0.15,-0.03 0.21,-0.05 0.05,-0.02 0.09,-0.04 0.12,-0.07 0.05,-0.05 0.09,-0.11 0.11,-0.19 0.03,-0.09 0.04,-0.19 0.04,-0.28 0.01,-0.06 0.01,-0.12 0.01,-0.19 0,-0.08 0.01,-0.16 0.01,-0.25 0,-0.07 0,-0.13 0,-0.2 0,-0.08 0,-0.17 -0,-0.25 -0,-0.11 -0,-0.21 -0.01,-0.32 -0,-0.09 -0.01,-0.17 -0.02,-0.26 -0.01,-0.07 -0.01,-0.14 -0.03,-0.21 -0.02,-0.09 -0.04,-0.15 -0.07,-0.2 -0.03,-0.05 -0.07,-0.09 -0.12,-0.12 -0.05,-0.03 -0.11,-0.05 -0.19,-0.06 -0.09,-0.02 -0.19,-0.03 -0.27,-0.03 -0.07,-0 -0.15,-0.01 -0.22,-0.01 -0.09,-0 -0.18,-0.01 -0.27,-0.01l0 0c-0.04,-0 -0.09,-0 -0.13,-0l-0.06 0c-0.03,-0 -0.05,-0 -0.08,-0zm0.1 3.13c-0.07,0 -0.14,-0 -0.2,-0 -0.09,-0 -0.18,-0.01 -0.27,-0.01 -0.08,-0 -0.16,-0.01 -0.23,-0.01 -0.11,-0.01 -0.23,-0.02 -0.36,-0.05 -0.1,-0.02 -0.19,-0.06 -0.27,-0.1 -0.13,-0.07 -0.23,-0.17 -0.29,-0.31 -0.05,-0.1 -0.08,-0.2 -0.1,-0.33 -0.01,-0.08 -0.02,-0.17 -0.03,-0.25 -0.01,-0.08 -0.01,-0.16 -0.01,-0.24l-0.01 -0.16c-0.01,-0.16 -0.01,-0.29 -0,-0.42 0,-0.07 0,-0.14 0,-0.21 0,-0.07 0.01,-0.14 0.01,-0.2 0.01,-0.1 0.01,-0.18 0.02,-0.25 0.01,-0.09 0.02,-0.2 0.05,-0.31 0.03,-0.12 0.08,-0.23 0.15,-0.31 0.08,-0.11 0.2,-0.19 0.34,-0.24 0.09,-0.03 0.19,-0.05 0.31,-0.07 0.09,-0.01 0.17,-0.02 0.26,-0.02 0.08,-0 0.15,-0.01 0.23,-0.01 0.12,-0 0.25,-0.01 0.37,-0.01l0.06 -0c0.05,0 0.09,-0 0.14,0 0.09,0 0.19,0 0.28,0.01 0.08,0 0.15,0.01 0.23,0.01 0.09,0.01 0.21,0.01 0.32,0.04 0.12,0.02 0.21,0.06 0.3,0.11 0.11,0.06 0.2,0.15 0.26,0.25 0.06,0.09 0.1,0.2 0.12,0.33 0.02,0.08 0.03,0.17 0.03,0.25 0.01,0.09 0.01,0.18 0.02,0.28 0,0.11 0.01,0.22 0.01,0.33 0,0.09 0,0.18 0,0.26 -0,0.07 -0,0.14 -0,0.21 -0,0.08 -0.01,0.17 -0.01,0.25 -0,0.07 -0.01,0.13 -0.01,0.2 -0.01,0.11 -0.02,0.23 -0.06,0.35 -0.05,0.16 -0.12,0.28 -0.22,0.37 -0.07,0.06 -0.15,0.11 -0.25,0.15 -0.09,0.03 -0.18,0.06 -0.29,0.07 -0.09,0.01 -0.18,0.02 -0.26,0.02 -0.07,0 -0.14,0.01 -0.21,0.01 -0.05,0 -0.11,0 -0.16,0.01l-0.05 0c-0.07,0 -0.14,0 -0.21,0z"/>
   <path class="fil0" d="M3.46 0.6c0.09,0 0.18,0 0.28,0.01 0.07,0 0.15,0.01 0.22,0.01 0.1,0.01 0.2,0.02 0.29,0.03 0.08,0.02 0.17,0.04 0.24,0.08 0.08,0.04 0.14,0.11 0.19,0.18 0.05,0.08 0.08,0.17 0.1,0.27 0.01,0.08 0.02,0.15 0.03,0.23 0.01,0.09 0.01,0.18 0.02,0.27 0,0.11 0.01,0.21 0.01,0.32 0,0.09 0,0.17 0,0.26 -0,0.07 -0,0.13 -0,0.2 -0,0.08 -0.01,0.17 -0.01,0.25 -0,0.06 -0.01,0.13 -0.01,0.19 -0.01,0.11 -0.02,0.21 -0.05,0.32 -0.03,0.11 -0.08,0.21 -0.17,0.28 -0.05,0.05 -0.12,0.08 -0.19,0.11 -0.08,0.03 -0.17,0.05 -0.25,0.06 -0.08,0.01 -0.17,0.02 -0.25,0.02 -0.07,0 -0.14,0.01 -0.21,0.01 -0.07,0 -0.14,0 -0.2,0.01 -0.13,0 -0.27,0 -0.4,0 -0.09,-0 -0.17,-0 -0.26,-0.01 -0.08,-0 -0.15,-0.01 -0.23,-0.01 -0.11,-0.01 -0.22,-0.02 -0.33,-0.04 -0.07,-0.02 -0.15,-0.04 -0.21,-0.08 -0.09,-0.05 -0.17,-0.13 -0.21,-0.22 -0.04,-0.09 -0.07,-0.18 -0.08,-0.27 -0.01,-0.08 -0.02,-0.16 -0.02,-0.23 -0.01,-0.08 -0.01,-0.16 -0.01,-0.24 -0,-0.06 -0,-0.12 -0.01,-0.19 -0,-0.13 -0,-0.26 -0,-0.39 0,-0.07 0,-0.14 0,-0.21 0,-0.07 0,-0.13 0.01,-0.2 0,-0.08 0.01,-0.16 0.02,-0.25 0.01,-0.09 0.02,-0.19 0.04,-0.28 0.02,-0.09 0.06,-0.17 0.12,-0.24 0.07,-0.09 0.15,-0.14 0.26,-0.18 0.09,-0.03 0.18,-0.05 0.27,-0.06 0.08,-0.01 0.17,-0.02 0.25,-0.02 0.08,-0 0.15,-0.01 0.23,-0.01 0.12,-0.01 0.24,-0.01 0.36,-0.01 0.06,0 0.13,-0 0.19,0z"/>
   <path class="fil1" d="M3.19 0.65c-0.09,0 -0.18,0 -0.28,0.01 -0.08,0 -0.15,0.01 -0.23,0.01 -0.08,0 -0.16,0.01 -0.24,0.02 -0.11,0.01 -0.18,0.03 -0.26,0.06 -0.1,0.04 -0.18,0.09 -0.23,0.16 -0.05,0.06 -0.08,0.13 -0.11,0.22 -0.02,0.09 -0.04,0.19 -0.04,0.27 -0.01,0.07 -0.01,0.15 -0.01,0.22l-0 0.02c-0,0.07 -0.01,0.13 -0.01,0.2 -0,0.07 -0,0.14 -0,0.2 -0,0.13 -0,0.26 0,0.38l0 0.03c0,0.05 0,0.11 0.01,0.16 0,0.08 0.01,0.16 0.01,0.23 0,0.07 0.01,0.15 0.02,0.23 0.02,0.1 0.04,0.19 0.08,0.26 0.04,0.09 0.11,0.15 0.19,0.2 0.06,0.03 0.12,0.06 0.2,0.07 0.11,0.02 0.22,0.03 0.32,0.04 0.08,0.01 0.15,0.01 0.23,0.01 0.09,0 0.17,0.01 0.26,0.01 0.13,0 0.27,0 0.4,-0l0.05 -0c0.05,-0 0.11,-0 0.16,-0.01 0.07,-0 0.14,-0.01 0.21,-0.01 0.08,-0 0.16,-0.01 0.25,-0.02 0.09,-0.01 0.17,-0.03 0.24,-0.06 0.07,-0.03 0.12,-0.06 0.17,-0.1 0.07,-0.06 0.12,-0.15 0.15,-0.26 0.03,-0.1 0.04,-0.21 0.05,-0.3 0.01,-0.06 0.01,-0.13 0.01,-0.19 0,-0.08 0.01,-0.17 0.01,-0.25 0,-0.07 0,-0.13 0,-0.2 0,-0.09 0,-0.17 -0,-0.26 -0,-0.11 -0,-0.21 -0.01,-0.32 -0,-0.09 -0.01,-0.18 -0.02,-0.27 -0.01,-0.07 -0.01,-0.14 -0.03,-0.22 -0.02,-0.1 -0.05,-0.18 -0.09,-0.25 -0.04,-0.07 -0.1,-0.12 -0.17,-0.17 -0.06,-0.04 -0.14,-0.06 -0.23,-0.08 -0.1,-0.02 -0.2,-0.03 -0.29,-0.03 -0.07,-0 -0.15,-0.01 -0.22,-0.01 -0.09,-0 -0.18,-0.01 -0.27,-0.01l0 0c-0.04,-0 -0.09,-0 -0.13,-0l-0.06 0c-0.02,-0 -0.05,-0 -0.08,-0zm0.1 3.13c-0.07,0 -0.13,-0 -0.2,-0 -0.09,-0 -0.18,-0.01 -0.26,-0.01 -0.08,-0 -0.15,-0.01 -0.23,-0.01 -0.1,-0.01 -0.22,-0.02 -0.34,-0.04 -0.09,-0.02 -0.16,-0.05 -0.23,-0.09 -0.1,-0.06 -0.18,-0.14 -0.24,-0.25 -0.04,-0.08 -0.07,-0.17 -0.09,-0.29 -0.01,-0.08 -0.02,-0.16 -0.03,-0.24 -0.01,-0.08 -0.01,-0.16 -0.01,-0.24 -0,-0.05 -0,-0.11 -0.01,-0.16l-0 -0.03c-0,-0.13 -0,-0.26 -0,-0.39 0,-0.07 0,-0.14 0,-0.21 0,-0.07 0.01,-0.13 0.01,-0.2l0 -0.02c0,-0.08 0.01,-0.15 0.02,-0.23 0.01,-0.08 0.02,-0.18 0.05,-0.28 0.03,-0.11 0.07,-0.19 0.13,-0.26 0.07,-0.09 0.16,-0.15 0.28,-0.2 0.08,-0.03 0.17,-0.05 0.28,-0.06 0.08,-0.01 0.17,-0.02 0.25,-0.02 0.08,-0 0.15,-0.01 0.23,-0.01 0.13,-0 0.25,-0.01 0.36,-0.01l0.06 -0c0.04,0 0.09,-0 0.14,0 0.09,0 0.18,0 0.28,0.01 0.07,0 0.15,0.01 0.22,0.01 0.09,0.01 0.2,0.01 0.3,0.04 0.1,0.02 0.19,0.05 0.26,0.09 0.09,0.05 0.16,0.12 0.21,0.2 0.05,0.08 0.08,0.17 0.1,0.29 0.02,0.08 0.02,0.16 0.03,0.23 0.01,0.09 0.01,0.18 0.02,0.27 0,0.11 0.01,0.22 0.01,0.32 0,0.09 0,0.17 0,0.26 -0,0.07 -0,0.14 -0,0.2 -0,0.08 -0.01,0.17 -0.01,0.25 -0,0.06 -0.01,0.13 -0.01,0.19 -0.01,0.1 -0.02,0.22 -0.05,0.33 -0.04,0.13 -0.1,0.23 -0.18,0.31 -0.06,0.05 -0.12,0.09 -0.2,0.12 -0.08,0.03 -0.16,0.05 -0.26,0.06 -0.08,0.01 -0.17,0.02 -0.25,0.02 -0.07,0 -0.14,0.01 -0.21,0.01 -0.05,0 -0.11,0 -0.16,0l-0.05 0c-0.07,0 -0.13,0 -0.2,0z"/>
   <path class="fil0" d="M2.39 0.21c0.11,0 0.23,0.01 0.34,0.01 0.09,0 0.19,0.01 0.28,0.02 0.12,0.01 0.25,0.02 0.37,0.04 0.11,0.02 0.21,0.05 0.3,0.11 0.1,0.06 0.18,0.13 0.24,0.23 0.06,0.1 0.1,0.22 0.12,0.34 0.02,0.09 0.03,0.19 0.04,0.28 0.01,0.11 0.02,0.22 0.02,0.34 0.01,0.13 0.01,0.27 0.01,0.4 0,0.11 0,0.22 0,0.32 -0,0.08 -0,0.17 -0.01,0.25 -0,0.1 -0.01,0.21 -0.01,0.31 -0,0.08 -0.01,0.16 -0.02,0.24 -0.01,0.13 -0.03,0.27 -0.07,0.39 -0.04,0.14 -0.1,0.26 -0.21,0.35 -0.07,0.06 -0.15,0.11 -0.23,0.14 -0.1,0.04 -0.21,0.06 -0.31,0.07 -0.1,0.01 -0.21,0.02 -0.31,0.03 -0.09,0.01 -0.18,0.01 -0.26,0.01 -0.09,0 -0.17,0.01 -0.26,0.01 -0.17,0 -0.33,0 -0.5,0 -0.11,-0 -0.22,-0.01 -0.33,-0.01 -0.1,-0 -0.19,-0.01 -0.29,-0.02 -0.14,-0.01 -0.27,-0.02 -0.41,-0.05 -0.09,-0.02 -0.18,-0.05 -0.27,-0.1 -0.12,-0.07 -0.21,-0.16 -0.27,-0.28 -0.06,-0.11 -0.08,-0.22 -0.1,-0.34 -0.02,-0.1 -0.02,-0.19 -0.03,-0.29 -0.01,-0.1 -0.01,-0.2 -0.02,-0.29 -0,-0.08 -0.01,-0.16 -0.01,-0.23 -0.01,-0.16 -0.01,-0.32 -0,-0.48 0,-0.09 0,-0.17 0.01,-0.26 0,-0.08 0.01,-0.17 0.01,-0.25 0.01,-0.1 0.01,-0.21 0.02,-0.31 0.01,-0.12 0.02,-0.23 0.06,-0.34 0.03,-0.11 0.07,-0.21 0.14,-0.3 0.08,-0.11 0.19,-0.18 0.32,-0.22 0.11,-0.04 0.22,-0.06 0.34,-0.07 0.1,-0.01 0.21,-0.02 0.31,-0.02 0.1,-0.01 0.19,-0.01 0.29,-0.01 0.15,-0.01 0.3,-0.01 0.45,-0.01 0.08,0 0.16,-0 0.24,0z"/>
   <path class="fil0" d="M2.05 0.41c-0.12,0 -0.23,0 -0.35,0.01 -0.09,0 -0.19,0.01 -0.28,0.01 -0.1,0.01 -0.2,0.01 -0.3,0.02 -0.12,0.01 -0.21,0.03 -0.29,0.06 -0.1,0.04 -0.17,0.09 -0.23,0.16 -0.05,0.06 -0.08,0.13 -0.11,0.23 -0.03,0.1 -0.04,0.21 -0.05,0.31 -0.01,0.09 -0.01,0.18 -0.02,0.27l-0 0.03c-0,0.08 -0.01,0.16 -0.01,0.24 -0,0.08 -0,0.17 -0.01,0.25 -0,0.16 -0,0.32 0,0.47l0.01 0.23c0,0.1 0.01,0.19 0.02,0.29 0.01,0.09 0.01,0.18 0.03,0.27 0.02,0.12 0.05,0.21 0.08,0.28 0.04,0.08 0.1,0.15 0.19,0.2 0.06,0.03 0.13,0.06 0.21,0.08 0.12,0.03 0.25,0.04 0.38,0.05 0.09,0.01 0.19,0.01 0.28,0.02 0.11,0 0.21,0.01 0.32,0.01 0.16,0 0.33,0 0.49,-0 0.09,-0 0.17,-0 0.25,-0.01 0.09,-0 0.17,-0.01 0.26,-0.01 0.1,-0.01 0.2,-0.01 0.3,-0.03 0.11,-0.01 0.19,-0.03 0.27,-0.06 0.07,-0.03 0.12,-0.06 0.17,-0.1 0.07,-0.06 0.12,-0.14 0.15,-0.26 0.03,-0.11 0.05,-0.24 0.06,-0.35 0.01,-0.08 0.01,-0.16 0.02,-0.23 0.01,-0.1 0.01,-0.21 0.01,-0.31 0,-0.08 0,-0.16 0.01,-0.25 0,-0.11 0,-0.21 -0,-0.32 -0,-0.13 -0.01,-0.26 -0.01,-0.4 -0.01,-0.11 -0.01,-0.22 -0.02,-0.33 -0.01,-0.09 -0.02,-0.17 -0.03,-0.26 -0.02,-0.11 -0.05,-0.2 -0.09,-0.27 -0.04,-0.07 -0.1,-0.12 -0.17,-0.16 -0.07,-0.04 -0.14,-0.06 -0.24,-0.08 -0.12,-0.02 -0.24,-0.03 -0.34,-0.04l-0.03 -0c-0.08,-0.01 -0.16,-0.01 -0.25,-0.01 -0.11,-0 -0.23,-0.01 -0.34,-0.01 -0.05,-0 -0.11,-0 -0.16,-0l-0.08 0c-0.03,-0 -0.06,-0 -0.09,-0zm0.13 3.91c-0.09,0 -0.17,-0 -0.26,-0 -0.11,-0 -0.22,-0.01 -0.33,-0.01 -0.1,-0 -0.19,-0.01 -0.29,-0.02 -0.13,-0.01 -0.29,-0.02 -0.44,-0.06 -0.12,-0.03 -0.23,-0.07 -0.32,-0.12 -0.15,-0.09 -0.27,-0.21 -0.35,-0.37 -0.06,-0.11 -0.1,-0.24 -0.12,-0.4 -0.02,-0.1 -0.03,-0.21 -0.03,-0.31 -0.01,-0.1 -0.01,-0.2 -0.02,-0.3l-0.01 -0.24c-0.01,-0.16 -0.01,-0.33 -0,-0.49 0,-0.09 0,-0.17 0.01,-0.26 0,-0.08 0.01,-0.17 0.01,-0.25l0 -0.03c0.01,-0.09 0.01,-0.19 0.02,-0.28 0.01,-0.11 0.03,-0.24 0.06,-0.38 0.04,-0.15 0.1,-0.27 0.18,-0.38 0.1,-0.13 0.24,-0.23 0.41,-0.29 0.11,-0.04 0.23,-0.07 0.38,-0.08 0.11,-0.01 0.21,-0.02 0.32,-0.03 0.1,-0.01 0.19,-0.01 0.29,-0.01 0.15,-0.01 0.31,-0.01 0.46,-0.01l0.07 -0c0.06,0 0.11,-0 0.17,0l0 0c0.12,0 0.23,0.01 0.35,0.01 0.08,0 0.17,0.01 0.25,0.01l0.03 0c0.12,0.01 0.26,0.02 0.4,0.05 0.14,0.03 0.26,0.07 0.36,0.13 0.13,0.07 0.24,0.18 0.32,0.3 0.07,0.11 0.12,0.24 0.15,0.4 0.02,0.1 0.03,0.2 0.04,0.31 0.01,0.11 0.02,0.23 0.02,0.34 0.01,0.14 0.01,0.27 0.01,0.41 0,0.11 0,0.22 0,0.33 -0,0.09 -0,0.17 -0.01,0.26 -0,0.11 -0.01,0.21 -0.01,0.32 -0,0.08 -0.01,0.16 -0.02,0.25 -0.01,0.14 -0.03,0.29 -0.07,0.44 -0.06,0.19 -0.14,0.33 -0.27,0.45 -0.08,0.08 -0.18,0.14 -0.3,0.18 -0.11,0.04 -0.22,0.07 -0.36,0.09 -0.11,0.01 -0.22,0.02 -0.33,0.03 -0.09,0.01 -0.18,0.01 -0.27,0.01 -0.09,0 -0.17,0.01 -0.26,0.01 -0.08,0 -0.17,0 -0.25,0z"/>
   <path class="fil0" d="M2.39 0.21c0.11,0 0.23,0.01 0.34,0.01 0.09,0 0.19,0.01 0.28,0.02 0.12,0.01 0.25,0.02 0.37,0.04 0.11,0.02 0.21,0.05 0.3,0.11 0.1,0.06 0.18,0.13 0.24,0.23 0.06,0.1 0.1,0.22 0.12,0.34 0.02,0.09 0.03,0.19 0.04,0.28 0.01,0.11 0.02,0.22 0.02,0.34 0.01,0.13 0.01,0.27 0.01,0.4 0,0.11 0,0.22 0,0.32 -0,0.08 -0,0.17 -0.01,0.25 -0,0.1 -0.01,0.21 -0.01,0.31 -0,0.08 -0.01,0.16 -0.02,0.24 -0.01,0.13 -0.03,0.27 -0.07,0.39 -0.04,0.14 -0.1,0.26 -0.21,0.35 -0.07,0.06 -0.15,0.11 -0.23,0.14 -0.1,0.04 -0.21,0.06 -0.31,0.07 -0.1,0.01 -0.21,0.02 -0.31,0.03 -0.09,0.01 -0.18,0.01 -0.26,0.01 -0.09,0 -0.17,0.01 -0.26,0.01 -0.17,0 -0.33,0 -0.5,0 -0.11,-0 -0.22,-0.01 -0.33,-0.01 -0.1,-0 -0.19,-0.01 -0.29,-0.02 -0.14,-0.01 -0.27,-0.02 -0.41,-0.05 -0.09,-0.02 -0.18,-0.05 -0.27,-0.1 -0.12,-0.07 -0.21,-0.16 -0.27,-0.28 -0.06,-0.11 -0.08,-0.22 -0.1,-0.34 -0.02,-0.1 -0.02,-0.19 -0.03,-0.29 -0.01,-0.1 -0.01,-0.2 -0.02,-0.29 -0,-0.08 -0.01,-0.16 -0.01,-0.23 -0.01,-0.16 -0.01,-0.32 -0,-0.48 0,-0.09 0,-0.17 0.01,-0.26 0,-0.08 0.01,-0.17 0.01,-0.25 0.01,-0.1 0.01,-0.21 0.02,-0.31 0.01,-0.12 0.02,-0.23 0.06,-0.34 0.03,-0.11 0.07,-0.21 0.14,-0.3 0.08,-0.11 0.19,-0.18 0.32,-0.22 0.11,-0.04 0.22,-0.06 0.34,-0.07 0.1,-0.01 0.21,-0.02 0.31,-0.02 0.1,-0.01 0.19,-0.01 0.29,-0.01 0.15,-0.01 0.3,-0.01 0.45,-0.01 0.08,0 0.16,-0 0.24,0z"/>
   <path class="fil1" d="M2.05 0.26c-0.11,0 -0.23,0 -0.35,0.01 -0.1,0 -0.19,0.01 -0.29,0.01 -0.1,0.01 -0.2,0.01 -0.31,0.02 -0.13,0.02 -0.23,0.04 -0.32,0.07 -0.13,0.05 -0.22,0.11 -0.3,0.21 -0.06,0.08 -0.1,0.17 -0.13,0.28 -0.03,0.12 -0.04,0.23 -0.05,0.33 -0.01,0.09 -0.01,0.18 -0.02,0.28l-0 0.03c-0,0.08 -0.01,0.16 -0.01,0.25 -0,0.08 -0,0.17 -0.01,0.26 -0,0.13 -0,0.31 0,0.48l0 0.03c0,0.07 0,0.13 0.01,0.2 0,0.1 0.01,0.2 0.02,0.29 0.01,0.09 0.01,0.19 0.03,0.29 0.02,0.13 0.05,0.24 0.1,0.33 0.06,0.11 0.14,0.2 0.25,0.26 0.07,0.04 0.15,0.07 0.25,0.09 0.13,0.03 0.27,0.04 0.4,0.05 0.09,0.01 0.19,0.01 0.28,0.02 0.11,0 0.22,0.01 0.33,0.01 0.19,0 0.34,0 0.5,-0 0.09,-0 0.17,-0 0.26,-0.01 0.09,-0 0.17,-0.01 0.26,-0.01 0.1,-0.01 0.2,-0.01 0.31,-0.03 0.12,-0.02 0.21,-0.04 0.3,-0.07 0.08,-0.03 0.15,-0.07 0.21,-0.13 0.09,-0.08 0.15,-0.19 0.19,-0.33 0.04,-0.13 0.05,-0.26 0.06,-0.38 0.01,-0.08 0.01,-0.16 0.02,-0.24 0.01,-0.1 0.01,-0.21 0.01,-0.31 0,-0.08 0,-0.17 0.01,-0.25 0,-0.11 0,-0.21 -0,-0.32 -0,-0.13 -0.01,-0.27 -0.01,-0.4 -0,-0.11 -0.01,-0.22 -0.02,-0.33 -0.01,-0.08 -0.02,-0.18 -0.04,-0.28 -0.03,-0.13 -0.06,-0.23 -0.11,-0.32 -0.05,-0.09 -0.13,-0.16 -0.22,-0.21 -0.08,-0.04 -0.17,-0.08 -0.29,-0.1 -0.12,-0.03 -0.25,-0.04 -0.36,-0.04l-0.03 -0c-0.08,-0.01 -0.17,-0.01 -0.25,-0.01 -0.11,-0 -0.23,-0.01 -0.34,-0.01 -0.05,-0 -0.11,-0 -0.16,-0l-0.08 0c-0.03,-0 -0.06,-0 -0.09,-0zm0.13 3.91c-0.08,0 -0.17,-0 -0.26,-0 -0.11,-0 -0.22,-0.01 -0.33,-0.01 -0.1,-0 -0.19,-0.01 -0.29,-0.02 -0.13,-0.01 -0.27,-0.02 -0.42,-0.05 -0.11,-0.03 -0.2,-0.06 -0.28,-0.1 -0.13,-0.07 -0.22,-0.17 -0.29,-0.3 -0.05,-0.1 -0.09,-0.21 -0.11,-0.36 -0.02,-0.1 -0.02,-0.2 -0.03,-0.3 -0.01,-0.1 -0.01,-0.2 -0.02,-0.3 -0,-0.07 -0,-0.13 -0.01,-0.2l-0 -0.03c-0.01,-0.18 -0.01,-0.35 -0,-0.48 0,-0.09 0,-0.17 0.01,-0.26 0,-0.08 0.01,-0.17 0.01,-0.25l0 -0.03c0.01,-0.09 0.01,-0.19 0.02,-0.28 0.01,-0.11 0.02,-0.23 0.06,-0.35 0.03,-0.13 0.09,-0.24 0.15,-0.32 0.09,-0.11 0.2,-0.19 0.34,-0.24 0.1,-0.04 0.21,-0.06 0.35,-0.08 0.11,-0.01 0.21,-0.02 0.31,-0.03 0.1,-0.01 0.19,-0.01 0.29,-0.01 0.17,-0.01 0.32,-0.01 0.45,-0.01l0.07 -0c0.06,0 0.11,-0 0.17,0l0 0c0.12,0 0.23,0.01 0.35,0.01 0.08,0 0.17,0.01 0.25,0.01l0.03 0c0.11,0.01 0.24,0.02 0.38,0.04 0.12,0.02 0.23,0.06 0.32,0.11 0.11,0.06 0.2,0.14 0.26,0.25 0.06,0.1 0.1,0.21 0.13,0.35 0.02,0.1 0.03,0.2 0.04,0.29 0.01,0.11 0.02,0.22 0.02,0.34 0.01,0.13 0.01,0.27 0.01,0.4 0,0.11 0,0.22 0,0.32 -0,0.08 -0,0.17 -0.01,0.25 -0,0.1 -0.01,0.21 -0.01,0.31 -0,0.08 -0.01,0.16 -0.02,0.24 -0.01,0.13 -0.03,0.27 -0.07,0.41 -0.05,0.16 -0.12,0.28 -0.23,0.38 -0.07,0.06 -0.15,0.11 -0.25,0.15 -0.09,0.04 -0.2,0.06 -0.33,0.08 -0.11,0.01 -0.22,0.02 -0.32,0.03 -0.09,0.01 -0.18,0.01 -0.26,0.01 -0.09,0 -0.17,0.01 -0.26,0.01 -0.08,0 -0.16,0 -0.25,0z"/>
   <polygon class="fil2" points="1.61,2.07 2.71,2.07 2.71,2.25 1.61,2.25 "/>
  </g>
 </g>
</svg>
