<?xml version="1.0" encoding="UTF-8"?>
<!DOCTYPE svg PUBLIC "-//W3C//DTD SVG 1.1//EN" "http://www.w3.org/Graphics/SVG/1.1/DTD/svg11.dtd">
<!-- Creator: CorelDRAW 2021 (64-Bit) -->
<svg xmlns="http://www.w3.org/2000/svg" xml:space="preserve" width="0.565071in" height="0.565071in" version="1.1" style="shape-rendering:geometricPrecision; text-rendering:geometricPrecision; image-rendering:optimizeQuality; fill-rule:evenodd; clip-rule:evenodd"
viewBox="0 0 5.66 5.66"
 xmlns:xlink="http://www.w3.org/1999/xlink"
 xmlns:xodm="http://www.corel.com/coreldraw/odm/2003">
 <defs>
  <style type="text/css">
   <![CDATA[
    .str0 {stroke:white;stroke-width:0.14;stroke-miterlimit:10}
    .fil1 {fill:white}
    .fil0 {fill:white;fill-rule:nonzero}
   ]]>
  </style>
 </defs>
 <g id="Layer_x0020_1">
  <metadata id="CorelCorpID_0Corel-Layer"/>
  <g id="_2860684393136">
   <path class="fil0" d="M3.32 4.32l-1.01 0c-0.05,0 -0.1,-0.03 -0.13,-0.07 -0.03,-0.05 -0.03,-0.1 -0,-0.15l0.05 -0.09 0.07 0.04 -0.05 0.09c-0.01,0.02 -0.01,0.05 0,0.07 0.01,0.02 0.03,0.04 0.06,0.04l1.01 0c0.03,0 0.05,-0.02 0.05,-0.03 0.01,-0.02 0.01,-0.05 -0,-0.08l-0.04 -0.09 0.07 -0.03 0.04 0.09c0.03,0.05 0.03,0.11 -0,0.15 -0.03,0.04 -0.07,0.07 -0.12,0.07z"/>
   <path class="fil0" d="M2.94 1.6l-0.22 0c-0.07,0 -0.12,-0.04 -0.12,-0.11l0.08 0c0,0.03 0.03,0.03 0.04,0.03l0.22 0c0.03,0 0.03,-0.01 0.03,-0.03l0.08 0c0,0.07 -0.04,0.11 -0.11,0.11z"/>
   <path class="fil0" d="M2.8 2.15c-0.29,0 -0.52,0.23 -0.52,0.52 0,0.29 0.23,0.52 0.52,0.52 0.29,0 0.52,-0.23 0.52,-0.52 0,-0.29 -0.23,-0.52 -0.52,-0.52zm0 1.12c-0.33,0 -0.6,-0.27 -0.6,-0.6 0,-0.33 0.27,-0.6 0.6,-0.6 0.33,0 0.6,0.27 0.6,0.6 0,0.33 -0.27,0.6 -0.6,0.6z"/>
   <path class="fil0" d="M2.83 1.42c-0.69,0 -1.25,0.56 -1.25,1.25 0,0.69 0.56,1.25 1.25,1.25 0.69,0 1.25,-0.56 1.25,-1.25 0,-0.69 -0.56,-1.25 -1.25,-1.25zm0 2.58c-0.73,0 -1.33,-0.6 -1.33,-1.33 0,-0.73 0.6,-1.33 1.33,-1.33 0.73,0 1.33,0.6 1.33,1.33 0,0.73 -0.6,1.33 -1.33,1.33z"/>
   <path class="fil1" d="M2.54 2.67c0,-0.15 0.12,-0.27 0.27,-0.27 0.15,0 0.27,0.12 0.27,0.27 0,0.15 -0.12,0.27 -0.27,0.27 -0.15,0 -0.27,-0.12 -0.27,-0.27z"/>
   <path class="fil0" d="M2.54 2.67c0,0.15 0.12,0.27 0.27,0.27 0.15,0 0.27,-0.12 0.27,-0.27 0,-0.15 -0.12,-0.27 -0.27,-0.27 -0.15,0 -0.27,0.12 -0.27,0.27z"/>
   <path class="fil0 str0" d="M2.83 0.12c-1.5,0 -2.71,1.22 -2.71,2.71 0,1.5 1.22,2.71 2.71,2.71 1.5,0 2.71,-1.22 2.71,-2.71 0,-1.5 -1.22,-2.71 -2.71,-2.71zm0 5.47c-1.52,0 -2.76,-1.24 -2.76,-2.76 0,-1.52 1.24,-2.76 2.76,-2.76 1.52,0 2.76,1.24 2.76,2.76 0,1.52 -1.24,2.76 -2.76,2.76z"/>
  </g>
 </g>
</svg>
