<?xml version="1.0" encoding="UTF-8"?>
<!DOCTYPE svg PUBLIC "-//W3C//DTD SVG 1.1//EN" "http://www.w3.org/Graphics/SVG/1.1/DTD/svg11.dtd">
<!-- Creator: CorelDRAW 2021 (64-Bit) -->
<svg xmlns="http://www.w3.org/2000/svg" xml:space="preserve" width="0.426394in" height="0.374138in" version="1.1" style="shape-rendering:geometricPrecision; text-rendering:geometricPrecision; image-rendering:optimizeQuality; fill-rule:evenodd; clip-rule:evenodd"
viewBox="0 0 6.09 5.34"
 xmlns:xlink="http://www.w3.org/1999/xlink"
 xmlns:xodm="http://www.corel.com/coreldraw/odm/2003">
 <defs>
  <style type="text/css">
   <![CDATA[
    .fil1 {fill:#FEFEFE}
    .fil0 {fill:#FEFEFE;fill-rule:nonzero}
   ]]>
  </style>
 </defs>
 <g id="Layer_x0020_1">
  <metadata id="CorelCorpID_0Corel-Layer"/>
  <g id="_1649921011344">
   <path class="fil0" d="M0.33 0.15c-0.09,0 -0.18,0.09 -0.18,0.18l0 3.4c0,0.09 0.09,0.18 0.18,0.18l5.43 0c0.09,0 0.18,-0.09 0.18,-0.18l0 -3.4c0,-0.09 -0.09,-0.18 -0.18,-0.18l-5.43 0zm5.43 3.91l-5.43 0c-0.18,0 -0.33,-0.15 -0.33,-0.33l0 -3.4c0,-0.18 0.15,-0.33 0.33,-0.33l5.43 0c0.18,0 0.33,0.15 0.33,0.33l0 3.4c0,0.18 -0.15,0.33 -0.33,0.33z"/>
   <polygon class="fil0" points="5.94,3.43 0.12,3.43 0.12,3.31 5.94,3.31 "/>
   <polygon class="fil0" points="4.09,5.34 1.97,5.34 1.97,5.19 4.09,5.19 "/>
   <path class="fil0" d="M2.09 5.31l-0.18 0 0 -0.12 0.18 0c0.09,0 0.18,-0.09 0.18,-0.18l0 -0.69 0.12 0 0 0.69c0,0.18 -0.15,0.33 -0.33,0.33l0.03 -0.03z"/>
   <path class="fil0" d="M4.09 5.31l-0.12 0c-0.18,0 -0.33,-0.15 -0.33,-0.33l0 -0.69 0.12 0 0 0.69c0,0.09 0.09,0.18 0.18,0.18l0.12 0 0 0.12 0.03 0.03z"/>
   <polygon class="fil1" points="3.58,1.55 3.01,1.7 2.45,1.55 2.24,1.49 2.27,1.79 3.01,2.21 3.79,1.79 3.82,1.49 "/>
   <polygon class="fil0" points="3.58,1.55 3.01,1.7 2.45,1.55 2.24,1.49 2.27,1.79 3.01,2.21 3.79,1.79 3.82,1.49 "/>
  </g>
 </g>
</svg>
